<svg id="svg" version="1.1" xmlns="http://www.w3.org/2000/svg" xmlns:xlink="http://www.w3.org/1999/xlink" width="400" height="392.61213720316624" viewBox="0, 0, 400,392.61213720316624"><g id="svgg"><path id="path0" d="M182.401 0.265 C 175.471 0.384,173.998 0.508,173.813 0.990 C 173.636 1.451,172.754 1.572,169.548 1.572 C 166.318 1.572,165.461 1.690,165.280 2.161 C 165.107 2.612,164.365 2.750,162.118 2.750 C 160.503 2.750,159.073 2.927,158.939 3.143 C 158.806 3.360,157.747 3.536,156.586 3.536 C 155.235 3.536,154.265 3.748,153.887 4.126 C 153.518 4.495,152.552 4.715,151.305 4.715 C 149.796 4.715,149.312 4.858,149.312 5.305 C 149.312 5.757,148.810 5.894,147.151 5.894 C 145.963 5.894,144.990 6.048,144.990 6.236 C 144.990 6.424,144.156 6.672,143.137 6.786 C 142.117 6.901,141.218 7.190,141.139 7.427 C 141.060 7.664,140.303 7.859,139.456 7.859 C 138.350 7.859,137.917 8.024,137.917 8.448 C 137.917 8.874,137.480 9.037,136.333 9.037 C 135.288 9.037,134.673 9.238,134.523 9.627 C 134.376 10.011,133.765 10.216,132.767 10.216 C 131.926 10.216,131.238 10.393,131.238 10.609 C 131.238 10.825,130.613 11.002,129.850 11.002 C 128.979 11.002,128.378 11.221,128.236 11.591 C 128.089 11.976,127.478 12.181,126.481 12.181 C 125.383 12.181,124.951 12.347,124.951 12.770 C 124.951 13.196,124.514 13.360,123.379 13.360 C 122.515 13.360,121.807 13.536,121.807 13.752 C 121.807 13.969,121.365 14.145,120.825 14.145 C 120.214 14.145,119.843 14.368,119.843 14.735 C 119.843 15.102,119.472 15.324,118.861 15.324 C 118.249 15.324,117.878 15.547,117.878 15.914 C 117.878 16.339,117.442 16.503,116.306 16.503 C 115.442 16.503,114.735 16.680,114.735 16.896 C 114.735 17.112,114.287 17.289,113.740 17.289 C 113.193 17.289,112.644 17.554,112.519 17.878 C 112.395 18.202,111.870 18.468,111.353 18.468 C 110.779 18.468,110.413 18.697,110.413 19.057 C 110.413 19.450,110.020 19.646,109.234 19.646 C 108.585 19.646,108.055 19.823,108.055 20.039 C 108.055 20.255,107.696 20.432,107.257 20.432 C 106.818 20.432,106.357 20.697,106.232 21.022 C 106.108 21.346,105.583 21.611,105.066 21.611 C 104.492 21.611,104.126 21.841,104.126 22.200 C 104.126 22.593,103.733 22.790,102.947 22.790 C 102.299 22.790,101.768 22.963,101.768 23.175 C 101.768 23.387,101.326 23.672,100.786 23.807 C 100.246 23.943,99.804 24.211,99.804 24.404 C 99.804 24.597,99.361 24.754,98.821 24.754 C 98.210 24.754,97.839 24.977,97.839 25.344 C 97.839 25.668,97.574 25.933,97.250 25.933 C 96.925 25.933,96.660 26.198,96.660 26.523 C 96.660 26.916,96.267 27.112,95.481 27.112 C 94.833 27.112,94.303 27.289,94.303 27.505 C 94.303 27.721,93.943 27.898,93.504 27.898 C 93.065 27.898,92.604 28.163,92.480 28.487 C 92.356 28.811,92.008 29.077,91.706 29.077 C 91.405 29.077,91.159 29.342,91.159 29.666 C 91.159 30.033,90.788 30.255,90.177 30.255 C 89.637 30.255,89.194 30.432,89.194 30.648 C 89.194 30.864,88.929 31.041,88.605 31.041 C 88.281 31.041,88.016 31.306,88.016 31.631 C 88.016 31.997,87.645 32.220,87.033 32.220 C 86.422 32.220,86.051 32.443,86.051 32.809 C 86.051 33.134,85.786 33.399,85.462 33.399 C 85.138 33.399,84.872 33.576,84.872 33.792 C 84.872 34.008,84.430 34.185,83.890 34.185 C 83.279 34.185,82.908 34.407,82.908 34.774 C 82.908 35.098,82.642 35.363,82.318 35.363 C 81.994 35.363,81.729 35.629,81.729 35.953 C 81.729 36.293,81.374 36.542,80.890 36.542 C 80.428 36.542,79.641 36.984,79.140 37.525 C 78.640 38.065,78.045 38.507,77.818 38.507 C 77.592 38.507,77.407 38.772,77.407 39.096 C 77.407 39.463,77.036 39.686,76.424 39.686 C 75.813 39.686,75.442 39.908,75.442 40.275 C 75.442 40.599,75.253 40.864,75.021 40.864 C 74.477 40.864,73.477 41.864,73.477 42.408 C 73.477 42.640,73.060 42.829,72.550 42.829 C 72.020 42.829,71.307 43.249,70.885 43.811 C 70.479 44.352,69.924 44.794,69.651 44.794 C 69.378 44.794,69.155 45.059,69.155 45.383 C 69.155 45.707,68.890 45.972,68.566 45.972 C 68.242 45.972,67.976 46.162,67.976 46.393 C 67.976 47.058,66.924 47.937,66.127 47.937 C 65.386 47.937,64.047 49.204,64.047 49.906 C 64.047 50.120,63.852 50.295,63.614 50.295 C 63.376 50.295,62.048 51.444,60.664 52.849 C 59.280 54.253,57.972 55.403,57.757 55.403 C 57.543 55.403,57.367 55.668,57.367 55.992 C 57.367 56.316,57.191 56.582,56.974 56.582 C 56.758 56.582,56.582 56.847,56.582 57.171 C 56.582 57.495,56.316 57.760,55.992 57.760 C 55.668 57.760,55.403 57.937,55.403 58.153 C 55.403 58.369,55.138 58.546,54.813 58.546 C 54.489 58.546,54.224 58.811,54.224 59.136 C 54.224 59.460,54.047 59.725,53.831 59.725 C 53.615 59.725,53.438 59.990,53.438 60.314 C 53.438 60.639,53.248 60.904,53.015 60.904 C 52.465 60.904,50.295 63.074,50.295 63.624 C 50.295 63.857,50.104 64.047,49.872 64.047 C 49.131 64.047,47.151 66.313,47.151 67.160 C 47.151 67.624,46.897 67.976,46.562 67.976 C 46.238 67.976,45.972 68.242,45.972 68.566 C 45.972 68.890,45.707 69.155,45.383 69.155 C 45.059 69.155,44.794 69.346,44.794 69.579 C 44.794 69.812,44.086 70.662,43.222 71.468 C 42.312 72.317,41.650 73.296,41.650 73.795 C 41.650 74.269,41.461 74.656,41.229 74.656 C 40.685 74.656,39.686 75.656,39.686 76.200 C 39.686 76.431,39.420 76.621,39.096 76.621 C 38.730 76.621,38.507 76.992,38.507 77.603 C 38.507 78.214,38.284 78.585,37.917 78.585 C 37.593 78.585,37.328 78.851,37.328 79.175 C 37.328 79.499,37.151 79.764,36.935 79.764 C 36.719 79.764,36.542 80.029,36.542 80.354 C 36.542 80.678,36.277 80.943,35.953 80.943 C 35.586 80.943,35.363 81.314,35.363 81.925 C 35.363 82.537,35.141 82.908,34.774 82.908 C 34.450 82.908,34.185 83.173,34.185 83.497 C 34.185 83.821,34.008 84.086,33.792 84.086 C 33.576 84.086,33.399 84.528,33.399 85.069 C 33.399 85.680,33.176 86.051,32.809 86.051 C 32.485 86.051,32.220 86.316,32.220 86.640 C 32.220 86.965,31.955 87.230,31.631 87.230 C 31.264 87.230,31.041 87.601,31.041 88.212 C 31.041 88.752,30.864 89.194,30.648 89.194 C 30.432 89.194,30.255 89.460,30.255 89.784 C 30.255 90.108,29.990 90.373,29.666 90.373 C 29.299 90.373,29.077 90.744,29.077 91.356 C 29.077 91.967,28.854 92.338,28.487 92.338 C 28.163 92.338,27.898 92.603,27.898 92.927 C 27.898 93.251,27.721 93.517,27.505 93.517 C 27.289 93.517,27.112 93.959,27.112 94.499 C 27.112 95.110,26.889 95.481,26.523 95.481 C 26.130 95.481,25.933 95.874,25.933 96.660 C 25.933 97.446,25.737 97.839,25.344 97.839 C 24.977 97.839,24.754 98.210,24.754 98.821 C 24.754 99.432,24.532 99.804,24.165 99.804 C 23.841 99.804,23.576 100.069,23.576 100.393 C 23.576 100.717,23.399 100.982,23.183 100.982 C 22.967 100.982,22.790 101.424,22.790 101.965 C 22.790 102.576,22.567 102.947,22.200 102.947 C 21.807 102.947,21.611 103.340,21.611 104.126 C 21.611 104.912,21.415 105.305,21.022 105.305 C 20.655 105.305,20.432 105.676,20.432 106.287 C 20.432 106.827,20.255 107.269,20.039 107.269 C 19.823 107.269,19.646 107.711,19.646 108.251 C 19.646 108.863,19.424 109.234,19.057 109.234 C 18.664 109.234,18.468 109.627,18.468 110.413 C 18.468 111.198,18.271 111.591,17.878 111.591 C 17.511 111.591,17.289 111.962,17.289 112.574 C 17.289 113.114,17.112 113.556,16.896 113.556 C 16.680 113.556,16.503 113.979,16.503 114.496 C 16.503 115.013,16.238 115.538,15.914 115.663 C 15.548 115.803,15.324 116.401,15.324 117.234 C 15.324 118.068,15.100 118.666,14.735 118.806 C 14.411 118.931,14.145 119.480,14.145 120.027 C 14.145 120.574,13.969 121.022,13.752 121.022 C 13.536 121.022,13.360 121.729,13.360 122.593 C 13.360 123.728,13.196 124.165,12.770 124.165 C 12.410 124.165,12.181 124.531,12.181 125.105 C 12.181 125.622,11.916 126.147,11.591 126.272 C 11.221 126.414,11.002 127.015,11.002 127.886 C 11.002 128.649,10.825 129.273,10.609 129.273 C 10.393 129.273,10.216 129.980,10.216 130.845 C 10.216 131.980,10.052 132.417,9.627 132.417 C 9.204 132.417,9.037 132.848,9.037 133.946 C 9.037 134.943,8.832 135.555,8.448 135.702 C 8.075 135.845,7.859 136.448,7.859 137.344 C 7.859 138.122,7.593 139.025,7.269 139.349 C 6.945 139.673,6.680 140.456,6.680 141.089 C 6.680 141.722,6.503 142.240,6.287 142.240 C 6.071 142.240,5.894 143.105,5.894 144.162 C 5.894 145.509,5.717 146.153,5.305 146.311 C 4.899 146.467,4.715 147.101,4.715 148.346 C 4.715 149.430,4.479 150.391,4.126 150.744 C 3.734 151.135,3.536 152.116,3.536 153.663 C 3.536 154.954,3.361 155.992,3.143 155.992 C 2.922 155.992,2.750 157.105,2.750 158.546 C 2.750 160.554,2.625 161.100,2.161 161.100 C 1.689 161.100,1.572 161.693,1.572 164.075 C 1.572 166.088,1.395 167.226,1.027 167.595 C -0.306 168.928,-0.397 224.384,0.932 225.356 C 1.426 225.717,1.572 226.506,1.572 228.825 C 1.572 231.232,1.689 231.827,2.161 231.827 C 2.625 231.827,2.750 232.373,2.750 234.381 C 2.750 235.822,2.922 236.935,3.143 236.935 C 3.365 236.935,3.536 238.053,3.536 239.502 C 3.536 241.420,3.685 242.125,4.126 242.294 C 4.539 242.453,4.715 243.098,4.715 244.455 C 4.715 245.813,4.891 246.458,5.305 246.616 C 5.717 246.775,5.894 247.419,5.894 248.765 C 5.894 249.822,6.071 250.688,6.287 250.688 C 6.503 250.688,6.680 251.184,6.680 251.791 C 6.680 252.398,6.939 253.238,7.257 253.658 C 7.574 254.077,7.839 255.001,7.846 255.710 C 7.854 256.484,8.094 257.089,8.448 257.225 C 8.832 257.373,9.037 257.984,9.037 258.981 C 9.037 260.079,9.204 260.511,9.627 260.511 C 10.052 260.511,10.216 260.947,10.216 262.083 C 10.216 262.947,10.393 263.654,10.609 263.654 C 10.825 263.654,11.002 264.279,11.002 265.042 C 11.002 265.913,11.221 266.514,11.591 266.656 C 11.916 266.780,12.181 267.305,12.181 267.822 C 12.181 268.396,12.410 268.762,12.770 268.762 C 13.196 268.762,13.360 269.199,13.360 270.334 C 13.360 271.198,13.536 271.906,13.752 271.906 C 13.969 271.906,14.145 272.353,14.145 272.900 C 14.145 273.447,14.411 273.997,14.735 274.121 C 15.100 274.261,15.324 274.859,15.324 275.693 C 15.324 276.526,15.548 277.124,15.914 277.265 C 16.238 277.389,16.503 277.914,16.503 278.431 C 16.503 278.948,16.680 279.371,16.896 279.371 C 17.112 279.371,17.289 279.813,17.289 280.354 C 17.289 280.965,17.511 281.336,17.878 281.336 C 18.271 281.336,18.468 281.729,18.468 282.515 C 18.468 283.301,18.664 283.694,19.057 283.694 C 19.424 283.694,19.646 284.065,19.646 284.676 C 19.646 285.216,19.823 285.658,20.039 285.658 C 20.255 285.658,20.432 286.081,20.432 286.598 C 20.432 287.116,20.697 287.640,21.022 287.765 C 21.346 287.889,21.611 288.439,21.611 288.986 C 21.611 289.608,21.832 289.980,22.200 289.980 C 22.540 289.980,22.790 290.336,22.790 290.819 C 22.790 291.281,23.232 292.068,23.772 292.569 C 24.312 293.070,24.754 293.841,24.754 294.284 C 24.754 294.737,25.012 295.088,25.344 295.088 C 25.737 295.088,25.933 295.481,25.933 296.267 C 25.933 297.053,26.130 297.446,26.523 297.446 C 26.889 297.446,27.112 297.817,27.112 298.428 C 27.112 298.969,27.289 299.411,27.505 299.411 C 27.721 299.411,27.898 299.676,27.898 300.000 C 27.898 300.324,28.163 300.589,28.487 300.589 C 28.854 300.589,29.077 300.960,29.077 301.572 C 29.077 302.183,29.299 302.554,29.666 302.554 C 29.990 302.554,30.255 302.819,30.255 303.143 C 30.255 303.468,30.432 303.733,30.648 303.733 C 30.864 303.733,31.041 304.175,31.041 304.715 C 31.041 305.326,31.264 305.697,31.631 305.697 C 31.955 305.697,32.220 305.963,32.220 306.287 C 32.220 306.611,32.485 306.876,32.809 306.876 C 33.176 306.876,33.399 307.247,33.399 307.859 C 33.399 308.399,33.576 308.841,33.792 308.841 C 34.008 308.841,34.185 309.106,34.185 309.430 C 34.185 309.754,34.450 310.020,34.774 310.020 C 35.141 310.020,35.363 310.391,35.363 311.002 C 35.363 311.613,35.586 311.984,35.953 311.984 C 36.277 311.984,36.542 312.250,36.542 312.574 C 36.542 312.898,36.719 313.163,36.935 313.163 C 37.151 313.163,37.328 313.428,37.328 313.752 C 37.328 314.077,37.593 314.342,37.917 314.342 C 38.284 314.342,38.507 314.713,38.507 315.324 C 38.507 315.935,38.730 316.306,39.096 316.306 C 39.420 316.306,39.686 316.496,39.686 316.727 C 39.686 317.271,40.685 318.271,41.229 318.271 C 41.461 318.271,41.650 318.536,41.650 318.861 C 41.650 319.185,41.916 319.450,42.240 319.450 C 42.572 319.450,42.829 319.801,42.829 320.255 C 42.829 320.697,43.271 321.469,43.811 321.970 C 44.352 322.470,44.794 323.081,44.794 323.326 C 44.794 323.571,45.059 323.772,45.383 323.772 C 45.707 323.772,45.972 324.037,45.972 324.361 C 45.972 324.686,46.162 324.951,46.393 324.951 C 47.058 324.951,47.937 326.003,47.937 326.800 C 47.937 327.542,49.204 328.880,49.906 328.880 C 50.120 328.880,50.295 329.071,50.295 329.303 C 50.295 329.853,52.465 332.024,53.015 332.024 C 53.248 332.024,53.438 332.214,53.438 332.447 C 53.438 332.997,55.608 335.167,56.158 335.167 C 56.391 335.167,56.582 335.356,56.582 335.588 C 56.582 336.137,63.077 342.633,63.626 342.633 C 63.858 342.633,64.047 342.898,64.047 343.222 C 64.047 343.589,64.418 343.811,65.029 343.811 C 65.641 343.811,66.012 344.034,66.012 344.401 C 66.012 344.725,66.201 344.990,66.433 344.990 C 66.977 344.990,67.976 345.990,67.976 346.534 C 67.976 346.765,68.242 346.955,68.566 346.955 C 68.890 346.955,69.155 347.220,69.155 347.544 C 69.155 347.868,69.378 348.134,69.651 348.134 C 69.924 348.134,70.479 348.576,70.885 349.116 C 71.307 349.678,72.020 350.098,72.550 350.098 C 73.060 350.098,73.477 350.289,73.477 350.521 C 73.477 351.172,75.696 353.242,76.395 353.242 C 76.736 353.242,77.701 353.949,78.540 354.813 C 79.379 355.678,80.440 356.385,80.897 356.385 C 81.375 356.385,81.729 356.636,81.729 356.974 C 81.729 357.299,81.975 357.564,82.276 357.564 C 82.577 357.564,82.925 357.829,83.050 358.153 C 83.174 358.477,83.635 358.743,84.074 358.743 C 84.513 358.743,84.872 358.919,84.872 359.136 C 84.872 359.352,85.138 359.528,85.462 359.528 C 85.786 359.528,86.051 359.794,86.051 360.118 C 86.051 360.485,86.422 360.707,87.033 360.707 C 87.645 360.707,88.016 360.930,88.016 361.297 C 88.016 361.621,88.281 361.886,88.605 361.886 C 88.929 361.886,89.194 362.063,89.194 362.279 C 89.194 362.495,89.637 362.672,90.177 362.672 C 90.788 362.672,91.159 362.895,91.159 363.261 C 91.159 363.585,91.405 363.851,91.706 363.851 C 92.008 363.851,92.356 364.116,92.480 364.440 C 92.604 364.764,93.065 365.029,93.504 365.029 C 93.943 365.029,94.303 365.206,94.303 365.422 C 94.303 365.639,94.833 365.815,95.481 365.815 C 96.267 365.815,96.660 366.012,96.660 366.405 C 96.660 366.771,97.031 366.994,97.642 366.994 C 98.254 366.994,98.625 367.217,98.625 367.583 C 98.625 367.908,98.890 368.173,99.214 368.173 C 99.538 368.173,99.804 368.331,99.804 368.523 C 99.804 368.716,100.246 368.984,100.786 369.120 C 101.326 369.256,101.768 369.540,101.768 369.752 C 101.768 369.964,102.299 370.138,102.947 370.138 C 103.733 370.138,104.126 370.334,104.126 370.727 C 104.126 371.087,104.492 371.316,105.066 371.316 C 105.583 371.316,106.108 371.582,106.232 371.906 C 106.357 372.230,106.818 372.495,107.257 372.495 C 107.696 372.495,108.055 372.672,108.055 372.888 C 108.055 373.104,108.585 373.281,109.234 373.281 C 110.020 373.281,110.413 373.477,110.413 373.870 C 110.413 374.230,110.779 374.460,111.353 374.460 C 111.870 374.460,112.395 374.725,112.519 375.049 C 112.644 375.373,113.193 375.639,113.740 375.639 C 114.287 375.639,114.735 375.815,114.735 376.031 C 114.735 376.248,115.442 376.424,116.306 376.424 C 117.442 376.424,117.878 376.588,117.878 377.014 C 117.878 377.380,118.249 377.603,118.861 377.603 C 119.472 377.603,119.843 377.826,119.843 378.193 C 119.843 378.618,120.279 378.782,121.415 378.782 C 122.279 378.782,122.986 378.959,122.986 379.175 C 122.986 379.391,123.428 379.568,123.969 379.568 C 124.580 379.568,124.951 379.790,124.951 380.157 C 124.951 380.580,125.383 380.747,126.481 380.747 C 127.478 380.747,128.089 380.952,128.236 381.336 C 128.378 381.706,128.979 381.925,129.850 381.925 C 130.613 381.925,131.238 382.102,131.238 382.318 C 131.238 382.534,131.951 382.711,132.822 382.711 C 133.867 382.711,134.483 382.912,134.632 383.301 C 134.779 383.685,135.391 383.890,136.388 383.890 C 137.486 383.890,137.917 384.056,137.917 384.479 C 137.917 384.893,138.335 385.069,139.321 385.069 C 140.093 385.069,140.989 385.334,141.313 385.658 C 141.638 385.982,142.598 386.248,143.447 386.248 C 144.296 386.248,144.990 386.424,144.990 386.640 C 144.990 386.857,145.963 387.033,147.151 387.033 C 148.810 387.033,149.312 387.170,149.312 387.623 C 149.312 388.091,149.880 388.212,152.063 388.212 C 154.246 388.212,154.813 388.334,154.813 388.802 C 154.813 389.265,155.359 389.391,157.367 389.391 C 158.808 389.391,159.921 389.562,159.921 389.784 C 159.921 390.013,161.231 390.177,163.065 390.177 C 165.597 390.177,166.208 390.291,166.208 390.766 C 166.208 391.254,166.950 391.356,170.530 391.356 C 174.110 391.356,174.853 391.457,174.853 391.945 C 174.853 392.461,177.430 392.534,195.690 392.534 C 213.850 392.534,216.557 392.459,216.754 391.945 C 216.935 391.473,217.796 391.356,221.064 391.356 C 224.432 391.356,225.147 391.252,225.147 390.766 C 225.147 390.291,225.759 390.177,228.291 390.177 C 230.124 390.177,231.434 390.013,231.434 389.784 C 231.434 389.566,232.473 389.391,233.764 389.391 C 235.310 389.391,236.291 389.193,236.683 388.802 C 237.052 388.433,238.017 388.212,239.265 388.212 C 240.774 388.212,241.257 388.069,241.257 387.623 C 241.257 387.177,241.738 387.033,243.222 387.033 C 244.303 387.033,245.187 386.857,245.187 386.640 C 245.187 386.424,246.076 386.248,247.164 386.248 C 248.558 386.248,249.207 386.074,249.367 385.658 C 249.514 385.274,250.125 385.069,251.123 385.069 C 252.220 385.069,252.652 384.902,252.652 384.479 C 252.652 384.027,253.154 383.890,254.813 383.890 C 256.472 383.890,256.974 383.753,256.974 383.301 C 256.974 382.875,257.411 382.711,258.546 382.711 C 259.411 382.711,260.118 382.534,260.118 382.318 C 260.118 382.102,260.560 381.925,261.100 381.925 C 261.711 381.925,262.083 381.703,262.083 381.336 C 262.083 380.910,262.520 380.747,263.667 380.747 C 264.712 380.747,265.327 380.546,265.477 380.157 C 265.616 379.794,266.214 379.568,267.036 379.568 C 267.769 379.568,268.369 379.391,268.369 379.175 C 268.369 378.959,268.900 378.782,269.548 378.782 C 270.334 378.782,270.727 378.585,270.727 378.193 C 270.727 377.767,271.164 377.603,272.299 377.603 C 273.434 377.603,273.870 377.439,273.870 377.014 C 273.870 376.647,274.241 376.424,274.853 376.424 C 275.393 376.424,275.835 376.248,275.835 376.031 C 275.835 375.815,276.283 375.639,276.830 375.639 C 277.377 375.639,277.926 375.373,278.050 375.049 C 278.175 374.725,278.700 374.460,279.217 374.460 C 279.791 374.460,280.157 374.230,280.157 373.870 C 280.157 373.477,280.550 373.281,281.336 373.281 C 281.984 373.281,282.515 373.104,282.515 372.888 C 282.515 372.672,282.957 372.495,283.497 372.495 C 284.108 372.495,284.479 372.272,284.479 371.906 C 284.479 371.539,284.850 371.316,285.462 371.316 C 286.073 371.316,286.444 371.094,286.444 370.727 C 286.444 370.334,286.837 370.138,287.623 370.138 C 288.271 370.138,288.802 369.961,288.802 369.745 C 288.802 369.528,289.161 369.352,289.600 369.352 C 290.039 369.352,290.500 369.086,290.624 368.762 C 290.749 368.438,291.273 368.173,291.791 368.173 C 292.364 368.173,292.731 367.943,292.731 367.583 C 292.731 367.259,292.996 366.994,293.320 366.994 C 293.644 366.994,293.910 366.729,293.910 366.405 C 293.910 366.038,294.281 365.815,294.892 365.815 C 295.432 365.815,295.874 365.639,295.874 365.422 C 295.874 365.206,296.277 365.029,296.769 365.029 C 297.646 365.029,299.018 363.828,299.018 363.060 C 299.018 362.847,299.548 362.672,300.196 362.672 C 300.845 362.672,301.375 362.495,301.375 362.279 C 301.375 362.063,301.734 361.886,302.173 361.886 C 302.612 361.886,303.073 361.621,303.198 361.297 C 303.322 360.972,303.670 360.707,303.971 360.707 C 304.272 360.707,304.519 360.442,304.519 360.118 C 304.519 359.751,304.890 359.528,305.501 359.528 C 306.041 359.528,306.483 359.352,306.483 359.136 C 306.483 358.919,306.749 358.743,307.073 358.743 C 307.397 358.743,307.662 358.477,307.662 358.153 C 307.662 357.787,308.033 357.564,308.644 357.564 C 309.256 357.564,309.627 357.341,309.627 356.974 C 309.627 356.650,309.827 356.385,310.073 356.385 C 310.318 356.385,310.929 355.943,311.429 355.403 C 311.930 354.862,312.619 354.420,312.960 354.420 C 313.301 354.420,313.682 354.155,313.807 353.831 C 313.931 353.507,314.204 353.242,314.412 353.242 C 314.922 353.242,315.914 352.222,315.914 351.698 C 315.914 351.466,316.301 351.277,316.775 351.277 C 317.273 351.277,318.253 350.615,319.102 349.705 C 319.908 348.841,320.758 348.134,320.991 348.134 C 321.224 348.134,321.415 347.868,321.415 347.544 C 321.415 347.220,321.680 346.955,322.004 346.955 C 322.328 346.955,322.593 346.690,322.593 346.365 C 322.593 346.041,322.933 345.776,323.349 345.776 C 324.113 345.776,326.523 343.665,326.523 342.995 C 326.523 342.796,326.713 342.633,326.946 342.633 C 327.496 342.633,329.666 340.462,329.666 339.912 C 329.666 339.680,329.856 339.489,330.089 339.489 C 330.639 339.489,332.809 337.319,332.809 336.769 C 332.809 336.536,333.075 336.346,333.399 336.346 C 333.723 336.346,333.988 336.081,333.988 335.756 C 333.988 335.432,334.178 335.167,334.409 335.167 C 334.953 335.167,335.953 334.167,335.953 333.623 C 335.953 333.392,336.218 333.202,336.542 333.202 C 336.866 333.202,337.132 332.937,337.132 332.613 C 337.132 332.289,337.322 332.024,337.555 332.024 C 338.105 332.024,340.275 329.853,340.275 329.303 C 340.275 329.071,340.468 328.880,340.703 328.880 C 341.254 328.880,342.602 327.270,342.620 326.593 C 342.635 325.963,343.595 324.951,344.176 324.951 C 344.408 324.951,344.597 324.705,344.597 324.404 C 344.597 324.102,344.862 323.754,345.187 323.630 C 345.644 323.454,345.776 322.684,345.776 320.190 C 345.776 316.326,344.383 314.342,341.670 314.342 C 340.692 314.342,340.275 314.166,340.275 313.752 C 340.275 313.261,339.489 313.163,335.560 313.163 C 331.631 313.163,330.845 313.065,330.845 312.574 C 330.845 312.110,330.299 311.984,328.291 311.984 C 326.850 311.984,325.737 311.813,325.737 311.591 C 325.737 311.375,324.764 311.198,323.576 311.198 C 321.917 311.198,321.415 311.061,321.415 310.609 C 321.415 310.157,320.912 310.020,319.253 310.020 C 317.594 310.020,317.092 309.883,317.092 309.430 C 317.092 309.005,316.656 308.841,315.521 308.841 C 314.656 308.841,313.949 308.664,313.949 308.448 C 313.949 308.232,313.242 308.055,312.377 308.055 C 311.242 308.055,310.806 307.891,310.806 307.466 C 310.806 307.040,310.369 306.876,309.234 306.876 C 308.099 306.876,307.662 306.713,307.662 306.287 C 307.662 305.920,307.291 305.697,306.680 305.697 C 306.139 305.697,305.697 305.521,305.697 305.305 C 305.697 305.088,305.167 304.912,304.519 304.912 C 303.733 304.912,303.340 304.715,303.340 304.322 C 303.340 303.897,302.903 303.733,301.768 303.733 C 300.633 303.733,300.196 303.569,300.196 303.143 C 300.196 302.784,299.830 302.554,299.256 302.554 C 298.739 302.554,298.214 302.289,298.090 301.965 C 297.965 301.640,297.458 301.375,296.962 301.375 C 296.459 301.375,295.735 300.941,295.323 300.393 C 294.901 299.831,294.189 299.411,293.658 299.411 C 293.148 299.411,292.731 299.237,292.731 299.025 C 292.731 298.813,292.289 298.529,291.749 298.393 C 291.208 298.258,290.766 297.989,290.766 297.796 C 290.766 297.604,290.324 297.446,289.784 297.446 C 289.173 297.446,288.802 297.223,288.802 296.857 C 288.802 296.532,288.555 296.267,288.254 296.267 C 287.953 296.267,287.605 296.002,287.481 295.678 C 287.356 295.354,286.895 295.088,286.456 295.088 C 286.017 295.088,285.658 294.912,285.658 294.695 C 285.658 294.479,285.393 294.303,285.069 294.303 C 284.745 294.303,284.479 294.037,284.479 293.713 C 284.479 293.353,284.113 293.124,283.539 293.124 C 283.022 293.124,282.497 292.859,282.373 292.534 C 282.195 292.071,281.390 291.945,278.598 291.945 C 275.705 291.945,275.049 292.054,275.049 292.534 C 275.049 292.892,274.684 293.124,274.122 293.124 C 273.591 293.124,272.879 293.544,272.457 294.106 C 272.051 294.646,271.496 295.088,271.223 295.088 C 270.950 295.088,270.727 295.354,270.727 295.678 C 270.727 296.045,270.356 296.267,269.745 296.267 C 269.133 296.267,268.762 296.490,268.762 296.857 C 268.762 297.181,268.497 297.446,268.173 297.446 C 267.849 297.446,267.583 297.604,267.583 297.796 C 267.583 297.989,267.141 298.258,266.601 298.393 C 266.061 298.529,265.619 298.813,265.619 299.025 C 265.619 299.237,265.354 299.411,265.029 299.411 C 264.705 299.411,264.440 299.676,264.440 300.000 C 264.440 300.332,264.089 300.589,263.635 300.589 C 263.193 300.589,262.421 301.031,261.920 301.572 C 261.420 302.112,260.633 302.554,260.171 302.554 C 259.687 302.554,259.332 302.804,259.332 303.143 C 259.332 303.468,259.067 303.733,258.743 303.733 C 258.418 303.733,258.153 303.998,258.153 304.322 C 258.153 304.715,257.760 304.912,256.974 304.912 C 256.326 304.912,255.796 305.088,255.796 305.305 C 255.796 305.521,255.354 305.697,254.813 305.697 C 254.202 305.697,253.831 305.920,253.831 306.287 C 253.831 306.654,253.460 306.876,252.849 306.876 C 252.238 306.876,251.866 307.099,251.866 307.466 C 251.866 307.859,251.473 308.055,250.688 308.055 C 250.039 308.055,249.509 308.232,249.509 308.448 C 249.509 308.664,249.150 308.841,248.711 308.841 C 248.272 308.841,247.811 309.106,247.686 309.430 C 247.562 309.754,247.037 310.020,246.520 310.020 C 245.946 310.020,245.580 310.249,245.580 310.609 C 245.580 311.002,245.187 311.198,244.401 311.198 C 243.752 311.198,243.222 311.375,243.222 311.591 C 243.222 311.807,242.780 311.984,242.240 311.984 C 241.628 311.984,241.257 312.207,241.257 312.574 C 241.257 312.999,240.821 313.163,239.686 313.163 C 238.551 313.163,238.114 313.327,238.114 313.752 C 238.114 314.178,237.677 314.342,236.542 314.342 C 235.678 314.342,234.971 314.519,234.971 314.735 C 234.971 314.951,234.453 315.128,233.820 315.128 C 233.187 315.128,232.404 315.393,232.080 315.717 C 231.756 316.041,230.859 316.306,230.087 316.306 C 229.102 316.306,228.684 316.482,228.684 316.896 C 228.684 317.348,228.182 317.485,226.523 317.485 C 225.334 317.485,224.361 317.640,224.361 317.828 C 224.361 318.017,223.441 318.260,222.315 318.368 C 221.190 318.476,220.203 318.764,220.121 319.007 C 220.028 319.286,218.821 319.450,216.863 319.450 C 214.360 319.450,213.752 319.565,213.752 320.039 C 213.752 320.530,212.967 320.629,209.037 320.629 C 205.108 320.629,204.322 320.727,204.322 321.218 C 204.322 321.723,203.165 321.807,196.267 321.807 C 189.369 321.807,188.212 321.723,188.212 321.218 C 188.212 320.727,187.426 320.629,183.497 320.629 C 179.568 320.629,178.782 320.530,178.782 320.039 C 178.782 319.565,178.174 319.450,175.671 319.450 C 173.960 319.450,172.502 319.275,172.430 319.061 C 172.358 318.847,171.194 318.556,169.843 318.415 C 168.492 318.275,167.387 318.008,167.387 317.822 C 167.387 317.637,166.415 317.485,165.226 317.485 C 163.567 317.485,163.065 317.348,163.065 316.896 C 163.065 316.445,162.567 316.306,160.946 316.306 C 159.425 316.306,158.763 316.140,158.601 315.717 C 158.459 315.347,157.858 315.128,156.987 315.128 C 156.224 315.128,155.599 314.951,155.599 314.735 C 155.599 314.519,154.892 314.342,154.028 314.342 C 152.892 314.342,152.456 314.178,152.456 313.752 C 152.456 313.327,152.019 313.163,150.884 313.163 C 149.749 313.163,149.312 312.999,149.312 312.574 C 149.312 312.207,148.941 311.984,148.330 311.984 C 147.790 311.984,147.348 311.807,147.348 311.591 C 147.348 311.375,146.817 311.198,146.169 311.198 C 145.383 311.198,144.990 311.002,144.990 310.609 C 144.990 310.183,144.554 310.020,143.418 310.020 C 142.283 310.020,141.847 309.856,141.847 309.430 C 141.847 309.064,141.476 308.841,140.864 308.841 C 140.324 308.841,139.882 308.664,139.882 308.448 C 139.882 308.232,139.440 308.055,138.900 308.055 C 138.289 308.055,137.917 307.832,137.917 307.466 C 137.917 307.073,137.525 306.876,136.739 306.876 C 135.953 306.876,135.560 306.680,135.560 306.287 C 135.560 305.963,135.295 305.697,134.971 305.697 C 134.646 305.697,134.381 305.521,134.381 305.305 C 134.381 305.088,133.939 304.912,133.399 304.912 C 132.788 304.912,132.417 304.689,132.417 304.322 C 132.417 303.955,132.045 303.733,131.434 303.733 C 130.823 303.733,130.452 303.510,130.452 303.143 C 130.452 302.819,130.187 302.554,129.862 302.554 C 129.538 302.554,129.273 302.396,129.273 302.204 C 129.273 302.011,128.831 301.742,128.291 301.607 C 127.750 301.471,127.308 301.187,127.308 300.975 C 127.308 300.763,127.062 300.589,126.761 300.589 C 126.460 300.589,126.112 300.324,125.988 300.000 C 125.863 299.676,125.482 299.411,125.141 299.411 C 124.800 299.411,124.111 298.969,123.610 298.428 C 123.109 297.888,122.322 297.446,121.861 297.446 C 121.377 297.446,121.022 297.196,121.022 296.857 C 121.022 296.532,120.756 296.267,120.432 296.267 C 120.108 296.267,119.843 296.002,119.843 295.678 C 119.843 295.354,119.578 295.088,119.253 295.088 C 118.929 295.088,118.664 294.912,118.664 294.695 C 118.664 294.479,118.399 294.303,118.075 294.303 C 117.750 294.303,117.485 294.037,117.485 293.713 C 117.485 293.346,117.114 293.124,116.503 293.124 C 115.892 293.124,115.521 292.901,115.521 292.534 C 115.521 292.210,115.331 291.945,115.100 291.945 C 114.556 291.945,113.556 290.945,113.556 290.401 C 113.556 290.170,113.291 289.980,112.967 289.980 C 112.642 289.980,112.377 289.715,112.377 289.391 C 112.377 289.067,112.188 288.802,111.956 288.802 C 111.412 288.802,110.413 287.802,110.413 287.258 C 110.413 287.026,110.147 286.837,109.823 286.837 C 109.499 286.837,109.234 286.572,109.234 286.248 C 109.234 285.923,108.998 285.658,108.711 285.658 C 108.423 285.658,107.951 285.216,107.662 284.676 C 107.373 284.136,106.901 283.694,106.613 283.694 C 106.326 283.694,106.090 283.428,106.090 283.104 C 106.090 282.780,105.825 282.515,105.501 282.515 C 105.177 282.515,104.912 282.325,104.912 282.094 C 104.912 281.550,103.912 280.550,103.368 280.550 C 103.136 280.550,102.947 280.285,102.947 279.961 C 102.947 279.637,102.682 279.371,102.358 279.371 C 102.033 279.371,101.768 279.106,101.768 278.782 C 101.768 278.458,101.603 278.193,101.402 278.193 C 101.200 278.193,100.911 277.802,100.759 277.324 C 100.442 276.323,98.496 274.263,97.869 274.263 C 97.636 274.263,97.446 273.998,97.446 273.674 C 97.446 273.350,97.269 273.084,97.053 273.084 C 96.837 273.084,96.660 272.642,96.660 272.102 C 96.660 271.491,96.437 271.120,96.071 271.120 C 95.747 271.120,95.481 270.855,95.481 270.530 C 95.481 270.206,95.216 269.941,94.892 269.941 C 94.568 269.941,94.303 269.676,94.303 269.352 C 94.303 269.028,94.126 268.762,93.910 268.762 C 93.694 268.762,93.517 268.403,93.517 267.964 C 93.517 267.525,93.251 267.064,92.927 266.940 C 92.603 266.815,92.338 266.467,92.338 266.166 C 92.338 265.865,92.073 265.619,91.749 265.619 C 91.382 265.619,91.159 265.248,91.159 264.637 C 91.159 264.096,90.982 263.654,90.766 263.654 C 90.550 263.654,90.373 263.389,90.373 263.065 C 90.373 262.741,90.108 262.475,89.784 262.475 C 89.417 262.475,89.194 262.104,89.194 261.493 C 89.194 260.882,88.972 260.511,88.605 260.511 C 88.281 260.511,88.016 260.246,88.016 259.921 C 88.016 259.597,87.839 259.332,87.623 259.332 C 87.407 259.332,87.230 258.890,87.230 258.350 C 87.230 257.738,87.007 257.367,86.640 257.367 C 86.248 257.367,86.051 256.974,86.051 256.189 C 86.051 255.403,85.855 255.010,85.462 255.010 C 85.095 255.010,84.872 254.639,84.872 254.028 C 84.872 253.487,84.715 253.045,84.522 253.045 C 84.329 253.045,84.061 252.603,83.925 252.063 C 83.789 251.523,83.505 251.081,83.293 251.081 C 83.081 251.081,82.908 250.633,82.908 250.086 C 82.908 249.539,82.642 248.989,82.318 248.865 C 81.994 248.741,81.729 248.216,81.729 247.699 C 81.729 247.125,81.499 246.758,81.139 246.758 C 80.747 246.758,80.550 246.365,80.550 245.580 C 80.550 244.931,80.373 244.401,80.157 244.401 C 79.941 244.401,79.764 243.959,79.764 243.418 C 79.764 242.807,79.542 242.436,79.175 242.436 C 78.749 242.436,78.585 242.000,78.585 240.864 C 78.585 239.729,78.422 239.293,77.996 239.293 C 77.570 239.293,77.407 238.856,77.407 237.721 C 77.407 236.857,77.230 236.149,77.014 236.149 C 76.798 236.149,76.621 235.442,76.621 234.578 C 76.621 233.442,76.457 233.006,76.031 233.006 C 75.606 233.006,75.442 232.569,75.442 231.434 C 75.442 230.299,75.278 229.862,74.853 229.862 C 74.400 229.862,74.263 229.360,74.263 227.701 C 74.263 226.513,74.086 225.540,73.870 225.540 C 73.652 225.540,73.477 224.488,73.477 223.170 C 73.477 221.426,73.322 220.741,72.888 220.574 C 72.434 220.400,72.299 219.646,72.299 217.289 C 72.299 214.932,72.163 214.178,71.709 214.003 C 71.227 213.818,71.120 212.846,71.120 208.657 C 71.120 205.505,70.969 203.536,70.727 203.536 C 70.482 203.536,70.334 201.310,70.334 197.642 C 70.334 193.975,70.482 191.749,70.727 191.749 C 70.971 191.749,71.120 189.522,71.120 185.855 C 71.120 180.878,71.212 179.961,71.709 179.961 C 72.189 179.961,72.299 179.310,72.299 176.466 C 72.299 173.723,72.425 172.924,72.888 172.746 C 73.303 172.587,73.477 171.940,73.477 170.566 C 73.477 169.491,73.654 168.503,73.870 168.369 C 74.086 168.236,74.263 167.253,74.263 166.185 C 74.263 164.721,74.408 164.244,74.853 164.244 C 75.305 164.244,75.442 163.742,75.442 162.083 C 75.442 160.423,75.579 159.921,76.031 159.921 C 76.457 159.921,76.621 159.485,76.621 158.350 C 76.621 157.485,76.798 156.778,77.014 156.778 C 77.230 156.778,77.407 156.071,77.407 155.206 C 77.407 154.071,77.570 153.635,77.996 153.635 C 78.356 153.635,78.585 153.268,78.585 152.694 C 78.585 152.177,78.851 151.652,79.175 151.528 C 79.545 151.386,79.764 150.785,79.764 149.914 C 79.764 149.151,79.941 148.527,80.157 148.527 C 80.373 148.527,80.550 147.996,80.550 147.348 C 80.550 146.562,80.747 146.169,81.139 146.169 C 81.499 146.169,81.729 145.803,81.729 145.229 C 81.729 144.712,81.994 144.187,82.318 144.062 C 82.642 143.938,82.908 143.388,82.908 142.841 C 82.908 142.294,83.081 141.847,83.293 141.847 C 83.505 141.847,83.789 141.405,83.925 140.864 C 84.061 140.324,84.329 139.882,84.522 139.882 C 84.715 139.882,84.872 139.440,84.872 138.900 C 84.872 138.289,85.095 137.917,85.462 137.917 C 85.855 137.917,86.051 137.525,86.051 136.739 C 86.051 135.953,86.248 135.560,86.640 135.560 C 87.007 135.560,87.230 135.189,87.230 134.578 C 87.230 134.037,87.407 133.595,87.623 133.595 C 87.839 133.595,88.016 133.330,88.016 133.006 C 88.016 132.682,88.281 132.417,88.605 132.417 C 88.972 132.417,89.194 132.045,89.194 131.434 C 89.194 130.823,89.417 130.452,89.784 130.452 C 90.108 130.452,90.373 130.187,90.373 129.862 C 90.373 129.538,90.550 129.273,90.766 129.273 C 90.982 129.273,91.159 128.831,91.159 128.291 C 91.159 127.680,91.382 127.308,91.749 127.308 C 92.073 127.308,92.338 127.062,92.338 126.761 C 92.338 126.460,92.603 126.112,92.927 125.988 C 93.251 125.863,93.517 125.402,93.517 124.963 C 93.517 124.524,93.694 124.165,93.910 124.165 C 94.126 124.165,94.303 123.900,94.303 123.576 C 94.303 123.251,94.568 122.986,94.892 122.986 C 95.259 122.986,95.481 122.615,95.481 122.004 C 95.481 121.393,95.704 121.022,96.071 121.022 C 96.395 121.022,96.660 120.756,96.660 120.432 C 96.660 120.108,96.837 119.843,97.053 119.843 C 97.269 119.843,97.446 119.578,97.446 119.253 C 97.446 118.929,97.621 118.664,97.834 118.664 C 98.602 118.664,99.804 117.293,99.804 116.416 C 99.804 115.923,99.993 115.521,100.225 115.521 C 100.769 115.521,101.768 114.521,101.768 113.977 C 101.768 113.745,102.033 113.556,102.358 113.556 C 102.682 113.556,102.947 113.321,102.947 113.033 C 102.947 112.745,103.389 112.273,103.929 111.984 C 104.470 111.695,104.912 111.223,104.912 110.936 C 104.912 110.648,105.177 110.413,105.501 110.413 C 105.825 110.413,106.090 110.147,106.090 109.823 C 106.090 109.499,106.326 109.234,106.613 109.234 C 106.901 109.234,107.373 108.792,107.662 108.251 C 107.951 107.711,108.423 107.269,108.711 107.269 C 108.998 107.269,109.234 107.004,109.234 106.680 C 109.234 106.356,109.499 106.090,109.823 106.090 C 110.147 106.090,110.413 105.901,110.413 105.669 C 110.413 105.438,110.665 104.996,110.974 104.687 C 111.283 104.378,111.725 104.126,111.956 104.126 C 112.188 104.126,112.377 103.861,112.377 103.536 C 112.377 103.212,112.642 102.947,112.967 102.947 C 113.291 102.947,113.556 102.758,113.556 102.526 C 113.556 101.861,114.609 100.982,115.405 100.982 C 116.147 100.982,117.485 99.715,117.485 99.013 C 117.485 98.800,117.750 98.625,118.075 98.625 C 118.399 98.625,118.664 98.448,118.664 98.232 C 118.664 98.016,118.929 97.839,119.253 97.839 C 119.578 97.839,119.843 97.574,119.843 97.250 C 119.843 96.883,120.214 96.660,120.825 96.660 C 121.436 96.660,121.807 96.437,121.807 96.071 C 121.807 95.747,122.008 95.481,122.254 95.481 C 122.499 95.481,123.109 95.039,123.610 94.499 C 124.111 93.959,124.883 93.517,125.325 93.517 C 125.778 93.517,126.130 93.259,126.130 92.927 C 126.130 92.603,126.395 92.338,126.719 92.338 C 127.043 92.338,127.308 92.161,127.308 91.945 C 127.308 91.729,127.750 91.552,128.291 91.552 C 128.902 91.552,129.273 91.329,129.273 90.963 C 129.273 90.596,129.644 90.373,130.255 90.373 C 130.867 90.373,131.238 90.151,131.238 89.784 C 131.238 89.460,131.503 89.194,131.827 89.194 C 132.151 89.194,132.417 88.929,132.417 88.605 C 132.417 88.238,132.788 88.016,133.399 88.016 C 133.939 88.016,134.381 87.839,134.381 87.623 C 134.381 87.407,134.829 87.230,135.376 87.230 C 135.923 87.230,136.472 86.965,136.597 86.640 C 136.721 86.316,137.246 86.051,137.763 86.051 C 138.337 86.051,138.703 85.821,138.703 85.462 C 138.703 85.095,139.074 84.872,139.686 84.872 C 140.226 84.872,140.668 84.695,140.668 84.479 C 140.668 84.263,141.116 84.086,141.663 84.086 C 142.210 84.086,142.759 83.821,142.883 83.497 C 143.008 83.173,143.533 82.908,144.050 82.908 C 144.624 82.908,144.990 82.678,144.990 82.318 C 144.990 81.925,145.383 81.729,146.169 81.729 C 146.817 81.729,147.348 81.552,147.348 81.336 C 147.348 81.120,147.972 80.943,148.735 80.943 C 149.606 80.943,150.207 80.724,150.349 80.354 C 150.473 80.029,150.998 79.764,151.516 79.764 C 152.089 79.764,152.456 79.535,152.456 79.175 C 152.456 78.749,152.892 78.585,154.028 78.585 C 154.892 78.585,155.599 78.409,155.599 78.193 C 155.599 77.976,156.306 77.800,157.171 77.800 C 158.306 77.800,158.743 77.636,158.743 77.210 C 158.743 76.764,159.224 76.621,160.720 76.621 C 162.114 76.621,162.763 76.447,162.923 76.031 C 163.070 75.647,163.681 75.442,164.679 75.442 C 165.520 75.442,166.208 75.265,166.208 75.049 C 166.208 74.831,167.260 74.656,168.578 74.656 C 170.322 74.656,171.008 74.501,171.174 74.067 C 171.349 73.612,172.107 73.477,174.502 73.477 C 176.997 73.477,177.603 73.362,177.603 72.888 C 177.603 72.400,178.345 72.299,181.925 72.299 C 185.505 72.299,186.248 72.197,186.248 71.709 C 186.248 71.202,187.514 71.120,195.285 71.120 C 203.056 71.120,204.322 71.202,204.322 71.709 C 204.322 72.200,205.108 72.299,209.037 72.299 C 212.967 72.299,213.752 72.397,213.752 72.888 C 213.752 73.347,214.279 73.477,216.138 73.477 C 217.735 73.477,218.719 73.672,219.113 74.067 C 219.504 74.458,220.485 74.656,222.032 74.656 C 223.323 74.656,224.361 74.831,224.361 75.049 C 224.361 75.265,225.334 75.442,226.523 75.442 C 228.182 75.442,228.684 75.579,228.684 76.031 C 228.684 76.454,229.116 76.621,230.213 76.621 C 231.211 76.621,231.822 76.826,231.969 77.210 C 232.111 77.580,232.712 77.800,233.583 77.800 C 234.346 77.800,234.971 77.976,234.971 78.193 C 234.971 78.409,235.678 78.585,236.542 78.585 C 237.677 78.585,238.114 78.749,238.114 79.175 C 238.114 79.601,238.551 79.764,239.686 79.764 C 240.821 79.764,241.257 79.928,241.257 80.354 C 241.257 80.720,241.628 80.943,242.240 80.943 C 242.780 80.943,243.222 81.120,243.222 81.336 C 243.222 81.552,243.752 81.729,244.401 81.729 C 245.187 81.729,245.580 81.925,245.580 82.318 C 245.580 82.678,245.946 82.908,246.520 82.908 C 247.037 82.908,247.562 83.173,247.686 83.497 C 247.828 83.867,248.429 84.086,249.300 84.086 C 250.063 84.086,250.688 84.263,250.688 84.479 C 250.688 84.695,250.953 84.872,251.277 84.872 C 251.601 84.872,251.866 85.138,251.866 85.462 C 251.866 85.821,252.233 86.051,252.807 86.051 C 253.324 86.051,253.849 86.316,253.973 86.640 C 254.098 86.965,254.558 87.230,254.997 87.230 C 255.436 87.230,255.796 87.407,255.796 87.623 C 255.796 87.839,256.326 88.016,256.974 88.016 C 257.760 88.016,258.153 88.212,258.153 88.605 C 258.153 88.972,258.524 89.194,259.136 89.194 C 259.747 89.194,260.118 89.417,260.118 89.784 C 260.118 90.108,260.364 90.373,260.665 90.373 C 260.966 90.373,261.314 90.639,261.439 90.963 C 261.563 91.287,262.024 91.552,262.463 91.552 C 262.902 91.552,263.261 91.729,263.261 91.945 C 263.261 92.161,263.527 92.338,263.851 92.338 C 264.175 92.338,264.440 92.603,264.440 92.927 C 264.440 93.259,264.791 93.517,265.245 93.517 C 265.687 93.517,266.459 93.959,266.960 94.499 C 267.460 95.039,268.071 95.481,268.316 95.481 C 268.562 95.481,268.762 95.747,268.762 96.071 C 268.762 96.437,269.133 96.660,269.745 96.660 C 270.356 96.660,270.727 96.883,270.727 97.250 C 270.727 97.574,270.950 97.839,271.223 97.839 C 271.496 97.839,272.051 98.281,272.457 98.821 C 272.879 99.383,273.591 99.804,274.122 99.804 C 274.684 99.804,275.049 100.036,275.049 100.393 C 275.049 101.260,282.040 101.260,282.373 100.393 C 282.497 100.069,283.022 99.804,283.539 99.804 C 284.113 99.804,284.479 99.574,284.479 99.214 C 284.479 98.847,284.850 98.625,285.462 98.625 C 286.002 98.625,286.444 98.448,286.444 98.232 C 286.444 98.016,286.709 97.839,287.033 97.839 C 287.358 97.839,287.623 97.574,287.623 97.250 C 287.623 96.883,287.994 96.660,288.605 96.660 C 289.216 96.660,289.587 96.437,289.587 96.071 C 289.587 95.747,289.853 95.481,290.177 95.481 C 290.501 95.481,290.766 95.305,290.766 95.088 C 290.766 94.872,291.208 94.695,291.749 94.695 C 292.360 94.695,292.731 94.473,292.731 94.106 C 292.731 93.713,293.124 93.517,293.910 93.517 C 294.695 93.517,295.088 93.320,295.088 92.927 C 295.088 92.561,295.460 92.338,296.071 92.338 C 296.611 92.338,297.053 92.161,297.053 91.945 C 297.053 91.729,297.412 91.552,297.851 91.552 C 298.290 91.552,298.751 91.287,298.876 90.963 C 299.005 90.627,299.591 90.373,300.239 90.373 C 300.987 90.373,301.375 90.172,301.375 89.784 C 301.375 89.417,301.746 89.194,302.358 89.194 C 302.969 89.194,303.340 88.972,303.340 88.605 C 303.340 88.212,303.733 88.016,304.519 88.016 C 305.167 88.016,305.697 87.839,305.697 87.623 C 305.697 87.407,306.322 87.230,307.085 87.230 C 307.956 87.230,308.557 87.010,308.699 86.640 C 308.846 86.256,309.457 86.051,310.455 86.051 C 311.552 86.051,311.984 85.885,311.984 85.462 C 311.984 85.036,312.421 84.872,313.556 84.872 C 314.420 84.872,315.128 84.695,315.128 84.479 C 315.128 84.263,315.752 84.086,316.515 84.086 C 317.386 84.086,317.987 83.867,318.129 83.497 C 318.288 83.084,318.933 82.908,320.290 82.908 C 321.648 82.908,322.293 82.732,322.451 82.318 C 322.610 81.905,323.253 81.729,324.600 81.729 C 325.657 81.729,326.523 81.552,326.523 81.336 C 326.523 81.107,327.832 80.943,329.666 80.943 C 332.198 80.943,332.809 80.828,332.809 80.354 C 332.809 79.865,333.552 79.764,337.132 79.764 C 340.712 79.764,341.454 79.663,341.454 79.175 C 341.454 78.749,341.890 78.585,343.026 78.585 C 344.440 78.585,344.597 78.487,344.597 77.603 C 344.597 76.992,344.820 76.621,345.187 76.621 C 345.669 76.621,345.776 75.944,345.776 72.888 C 345.776 69.832,345.669 69.155,345.187 69.155 C 344.862 69.155,344.597 68.890,344.597 68.566 C 344.597 68.242,344.332 67.976,344.008 67.976 C 343.684 67.976,343.418 67.636,343.418 67.221 C 343.418 66.457,341.307 64.047,340.638 64.047 C 340.438 64.047,340.275 63.857,340.275 63.624 C 340.275 63.074,338.105 60.904,337.555 60.904 C 337.322 60.904,337.132 60.639,337.132 60.314 C 337.132 59.990,336.866 59.725,336.542 59.725 C 336.218 59.725,335.953 59.536,335.953 59.304 C 335.953 58.760,334.953 57.760,334.409 57.760 C 334.178 57.760,333.988 57.495,333.988 57.171 C 333.988 56.847,333.723 56.582,333.399 56.582 C 333.075 56.582,332.809 56.391,332.809 56.158 C 332.809 55.608,330.639 53.438,330.089 53.438 C 329.856 53.438,329.666 53.248,329.666 53.015 C 329.666 52.465,327.496 50.295,326.946 50.295 C 326.713 50.295,326.523 50.131,326.523 49.932 C 326.523 49.263,324.113 47.151,323.349 47.151 C 322.933 47.151,322.593 46.886,322.593 46.562 C 322.593 46.238,322.328 45.972,322.004 45.972 C 321.680 45.972,321.415 45.707,321.415 45.383 C 321.415 45.059,321.224 44.794,320.991 44.794 C 320.758 44.794,319.908 44.086,319.102 43.222 C 318.296 42.358,317.324 41.650,316.943 41.650 C 316.175 41.650,315.128 40.760,315.128 40.107 C 315.128 39.875,314.881 39.686,314.580 39.686 C 314.279 39.686,313.931 39.420,313.807 39.096 C 313.682 38.772,313.301 38.507,312.960 38.507 C 312.619 38.507,311.930 38.065,311.429 37.525 C 310.929 36.984,310.318 36.542,310.073 36.542 C 309.827 36.542,309.627 36.277,309.627 35.953 C 309.627 35.586,309.256 35.363,308.644 35.363 C 308.033 35.363,307.662 35.141,307.662 34.774 C 307.662 34.450,307.397 34.185,307.073 34.185 C 306.749 34.185,306.483 34.008,306.483 33.792 C 306.483 33.576,306.041 33.399,305.501 33.399 C 304.890 33.399,304.519 33.176,304.519 32.809 C 304.519 32.485,304.272 32.220,303.971 32.220 C 303.670 32.220,303.322 31.955,303.198 31.631 C 303.073 31.306,302.612 31.041,302.173 31.041 C 301.734 31.041,301.375 30.864,301.375 30.648 C 301.375 30.432,301.110 30.255,300.786 30.255 C 300.462 30.255,300.196 29.990,300.196 29.666 C 300.196 29.306,299.830 29.077,299.256 29.077 C 298.739 29.077,298.214 28.811,298.090 28.487 C 297.965 28.163,297.458 27.898,296.962 27.898 C 296.459 27.898,295.735 27.463,295.323 26.916 C 294.901 26.354,294.189 25.933,293.658 25.933 C 293.096 25.933,292.731 25.701,292.731 25.344 C 292.731 24.977,292.360 24.754,291.749 24.754 C 291.208 24.754,290.766 24.597,290.766 24.404 C 290.766 24.211,290.324 23.943,289.784 23.807 C 289.244 23.672,288.802 23.387,288.802 23.175 C 288.802 22.963,288.271 22.790,287.623 22.790 C 286.837 22.790,286.444 22.593,286.444 22.200 C 286.444 21.841,286.078 21.611,285.504 21.611 C 284.987 21.611,284.462 21.346,284.337 21.022 C 284.213 20.697,283.752 20.432,283.313 20.432 C 282.874 20.432,282.515 20.255,282.515 20.039 C 282.515 19.823,281.984 19.646,281.336 19.646 C 280.550 19.646,280.157 19.450,280.157 19.057 C 280.157 18.697,279.791 18.468,279.217 18.468 C 278.700 18.468,278.175 18.202,278.050 17.878 C 277.926 17.554,277.377 17.289,276.830 17.289 C 276.283 17.289,275.835 17.112,275.835 16.896 C 275.835 16.680,275.393 16.503,274.853 16.503 C 274.241 16.503,273.870 16.280,273.870 15.914 C 273.870 15.488,273.434 15.324,272.299 15.324 C 271.164 15.324,270.727 15.160,270.727 14.735 C 270.727 14.372,270.358 14.145,269.768 14.145 C 269.240 14.145,268.699 13.969,268.566 13.752 C 268.432 13.536,267.733 13.360,267.013 13.360 C 266.211 13.360,265.615 13.131,265.477 12.770 C 265.352 12.446,264.822 12.181,264.298 12.181 C 263.774 12.181,263.244 11.916,263.119 11.591 C 262.977 11.221,262.376 11.002,261.505 11.002 C 260.742 11.002,260.118 10.825,260.118 10.609 C 260.118 10.393,259.411 10.216,258.546 10.216 C 257.411 10.216,256.974 10.052,256.974 9.627 C 256.974 9.204,256.543 9.037,255.445 9.037 C 254.448 9.037,253.836 8.832,253.689 8.448 C 253.533 8.042,252.899 7.859,251.654 7.859 C 250.570 7.859,249.609 7.622,249.256 7.269 C 248.932 6.945,248.149 6.680,247.516 6.680 C 246.883 6.680,246.365 6.503,246.365 6.287 C 246.365 6.071,245.393 5.894,244.204 5.894 C 242.545 5.894,242.043 5.757,242.043 5.305 C 242.043 4.842,241.502 4.715,239.531 4.715 C 237.661 4.715,236.961 4.565,236.793 4.126 C 236.627 3.693,235.944 3.536,234.220 3.536 C 232.930 3.536,231.764 3.360,231.631 3.143 C 231.497 2.927,229.984 2.750,228.268 2.750 C 225.756 2.750,225.147 2.636,225.147 2.161 C 225.147 1.675,224.427 1.572,221.022 1.572 C 217.616 1.572,216.896 1.469,216.896 0.982 C 216.896 0.484,215.964 0.393,210.868 0.393 C 207.553 0.393,201.674 0.332,197.804 0.257 C 193.933 0.183,187.002 0.186,182.401 0.265 M321.415 127.898 C 321.415 128.373,320.803 128.487,318.271 128.487 C 316.437 128.487,315.128 128.651,315.128 128.880 C 315.128 129.096,314.155 129.273,312.967 129.273 C 311.308 129.273,310.806 129.410,310.806 129.862 C 310.806 130.288,310.369 130.452,309.234 130.452 C 308.099 130.452,307.662 130.616,307.662 131.041 C 307.662 131.467,307.225 131.631,306.090 131.631 C 305.226 131.631,304.519 131.807,304.519 132.024 C 304.519 132.240,304.077 132.417,303.536 132.417 C 302.925 132.417,302.554 132.639,302.554 133.006 C 302.554 133.399,302.161 133.595,301.375 133.595 C 300.589 133.595,300.196 133.792,300.196 134.185 C 300.196 134.551,299.825 134.774,299.214 134.774 C 298.674 134.774,298.232 134.951,298.232 135.167 C 298.232 135.383,297.784 135.560,297.237 135.560 C 296.690 135.560,296.141 135.825,296.016 136.149 C 295.892 136.473,295.367 136.739,294.850 136.739 C 294.276 136.739,293.910 136.968,293.910 137.328 C 293.910 137.652,293.644 137.917,293.320 137.917 C 292.996 137.917,292.731 138.091,292.731 138.303 C 292.731 138.515,292.289 138.799,291.749 138.935 C 291.208 139.071,290.766 139.339,290.766 139.532 C 290.766 139.724,290.501 139.882,290.177 139.882 C 289.853 139.882,289.587 140.147,289.587 140.472 C 289.587 140.838,289.216 141.061,288.605 141.061 C 287.994 141.061,287.623 141.284,287.623 141.650 C 287.623 141.974,287.433 142.240,287.202 142.240 C 286.658 142.240,285.658 143.239,285.658 143.783 C 285.658 144.015,285.393 144.204,285.069 144.204 C 284.745 144.204,284.479 144.470,284.479 144.794 C 284.479 145.118,284.290 145.383,284.058 145.383 C 283.514 145.383,282.515 146.383,282.515 146.927 C 282.515 147.158,282.250 147.348,281.925 147.348 C 281.601 147.348,281.336 147.613,281.336 147.937 C 281.336 148.261,281.146 148.527,280.913 148.527 C 280.363 148.527,278.193 150.697,278.193 151.247 C 278.193 151.480,278.002 151.670,277.769 151.670 C 276.937 151.670,275.049 153.967,275.049 154.980 C 275.049 155.536,274.874 155.992,274.661 155.992 C 273.959 155.992,272.692 157.331,272.692 158.072 C 272.692 158.869,271.813 159.921,271.148 159.921 C 270.916 159.921,270.727 160.452,270.727 161.100 C 270.727 161.886,270.530 162.279,270.138 162.279 C 269.771 162.279,269.548 162.650,269.548 163.261 C 269.548 163.802,269.371 164.244,269.155 164.244 C 268.939 164.244,268.762 164.686,268.762 165.226 C 268.762 165.837,268.540 166.208,268.173 166.208 C 267.780 166.208,267.583 166.601,267.583 167.387 C 267.583 168.173,267.387 168.566,266.994 168.566 C 266.627 168.566,266.405 168.937,266.405 169.548 C 266.405 170.088,266.228 170.530,266.012 170.530 C 265.796 170.530,265.619 171.238,265.619 172.102 C 265.619 173.237,265.455 173.674,265.029 173.674 C 264.577 173.674,264.440 174.176,264.440 175.835 C 264.440 177.494,264.303 177.996,263.851 177.996 C 263.400 177.996,263.261 178.493,263.261 180.115 C 263.261 181.636,263.095 182.298,262.672 182.460 C 262.208 182.638,262.083 183.443,262.083 186.235 C 262.083 188.339,261.923 189.784,261.690 189.784 C 261.442 189.784,261.297 192.469,261.297 197.053 C 261.297 201.637,261.442 204.322,261.690 204.322 C 261.917 204.322,262.083 205.571,262.083 207.281 C 262.083 209.549,262.220 210.294,262.672 210.467 C 263.111 210.636,263.261 211.336,263.261 213.217 C 263.261 215.099,263.411 215.799,263.851 215.968 C 264.235 216.115,264.440 216.727,264.440 217.724 C 264.440 218.822,264.606 219.253,265.029 219.253 C 265.455 219.253,265.619 219.690,265.619 220.825 C 265.619 221.690,265.796 222.397,266.012 222.397 C 266.228 222.397,266.405 222.839,266.405 223.379 C 266.405 223.990,266.627 224.361,266.994 224.361 C 267.387 224.361,267.583 224.754,267.583 225.540 C 267.583 226.326,267.780 226.719,268.173 226.719 C 268.540 226.719,268.762 227.090,268.762 227.701 C 268.762 228.242,268.939 228.684,269.155 228.684 C 269.371 228.684,269.548 229.126,269.548 229.666 C 269.548 230.277,269.771 230.648,270.138 230.648 C 270.530 230.648,270.727 231.041,270.727 231.827 C 270.727 232.613,270.923 233.006,271.316 233.006 C 271.683 233.006,271.906 233.377,271.906 233.988 C 271.906 234.528,272.083 234.971,272.299 234.971 C 272.515 234.971,272.692 235.236,272.692 235.560 C 272.692 235.884,272.957 236.149,273.281 236.149 C 273.605 236.149,273.870 236.326,273.870 236.542 C 273.870 236.758,274.136 236.935,274.460 236.935 C 274.831 236.935,275.049 237.310,275.049 237.948 C 275.049 238.961,276.937 241.257,277.769 241.257 C 278.002 241.257,278.193 241.523,278.193 241.847 C 278.193 242.171,278.350 242.436,278.543 242.436 C 278.736 242.436,279.004 242.878,279.140 243.418 C 279.275 243.959,279.560 244.401,279.772 244.401 C 279.984 244.401,280.157 244.666,280.157 244.990 C 280.157 245.314,280.422 245.580,280.747 245.580 C 281.071 245.580,281.336 245.845,281.336 246.169 C 281.336 246.493,281.601 246.758,281.925 246.758 C 282.250 246.758,282.515 246.935,282.515 247.151 C 282.515 247.367,282.957 247.544,283.497 247.544 C 284.108 247.544,284.479 247.767,284.479 248.134 C 284.479 248.458,284.745 248.723,285.069 248.723 C 285.393 248.723,285.658 248.912,285.658 249.144 C 285.658 249.688,286.658 250.688,287.202 250.688 C 287.433 250.688,287.623 250.953,287.623 251.277 C 287.623 251.601,287.888 251.866,288.212 251.866 C 288.536 251.866,288.802 252.132,288.802 252.456 C 288.802 252.823,289.173 253.045,289.784 253.045 C 290.395 253.045,290.766 253.268,290.766 253.635 C 290.766 253.959,291.031 254.224,291.356 254.224 C 291.680 254.224,291.945 254.401,291.945 254.617 C 291.945 254.833,292.387 255.010,292.927 255.010 C 293.539 255.010,293.910 255.232,293.910 255.599 C 293.910 255.923,294.156 256.189,294.457 256.189 C 294.758 256.189,295.106 256.454,295.231 256.778 C 295.355 257.102,295.816 257.367,296.255 257.367 C 296.694 257.367,297.053 257.544,297.053 257.760 C 297.053 257.976,297.583 258.153,298.232 258.153 C 299.018 258.153,299.411 258.350,299.411 258.743 C 299.411 259.102,299.777 259.332,300.351 259.332 C 300.868 259.332,301.393 259.597,301.517 259.921 C 301.659 260.291,302.260 260.511,303.131 260.511 C 303.894 260.511,304.519 260.688,304.519 260.904 C 304.519 261.120,304.961 261.297,305.501 261.297 C 306.112 261.297,306.483 261.519,306.483 261.886 C 306.483 262.309,306.915 262.475,308.013 262.475 C 309.010 262.475,309.621 262.681,309.769 263.065 C 309.928 263.481,310.577 263.654,311.972 263.654 C 313.059 263.654,313.949 263.831,313.949 264.047 C 313.949 264.272,315.128 264.440,316.699 264.440 C 318.882 264.440,319.450 264.562,319.450 265.029 C 319.450 265.539,320.934 265.619,330.452 265.619 C 339.969 265.619,341.454 265.539,341.454 265.029 C 341.454 264.555,342.065 264.440,344.597 264.440 C 346.431 264.440,347.741 264.276,347.741 264.047 C 347.741 263.831,348.448 263.654,349.312 263.654 C 350.448 263.654,350.884 263.491,350.884 263.065 C 350.884 262.639,351.321 262.475,352.456 262.475 C 353.591 262.475,354.028 262.312,354.028 261.886 C 354.028 261.460,354.464 261.297,355.599 261.297 C 356.464 261.297,357.171 261.120,357.171 260.904 C 357.171 260.688,357.619 260.511,358.166 260.511 C 358.713 260.511,359.262 260.246,359.386 259.921 C 359.511 259.597,360.036 259.332,360.553 259.332 C 361.127 259.332,361.493 259.102,361.493 258.743 C 361.493 258.376,361.864 258.153,362.475 258.153 C 363.016 258.153,363.458 257.976,363.458 257.760 C 363.458 257.544,363.905 257.367,364.452 257.367 C 364.999 257.367,365.549 257.102,365.673 256.778 C 365.798 256.454,366.323 256.189,366.840 256.189 C 367.414 256.189,367.780 255.959,367.780 255.599 C 367.780 255.275,368.045 255.010,368.369 255.010 C 368.694 255.010,368.959 254.833,368.959 254.617 C 368.959 254.401,369.318 254.224,369.757 254.224 C 370.196 254.224,370.657 253.959,370.781 253.635 C 370.906 253.310,371.254 253.045,371.555 253.045 C 371.856 253.045,372.102 252.780,372.102 252.456 C 372.102 252.089,372.473 251.866,373.084 251.866 C 373.696 251.866,374.067 251.644,374.067 251.277 C 374.067 250.953,374.257 250.688,374.490 250.688 C 375.040 250.688,377.210 248.517,377.210 247.967 C 377.210 247.735,377.475 247.544,377.800 247.544 C 378.124 247.544,378.389 247.367,378.389 247.151 C 378.389 246.935,378.654 246.758,378.978 246.758 C 379.303 246.758,379.568 246.493,379.568 246.169 C 379.568 245.845,379.745 245.580,379.961 245.580 C 380.177 245.580,380.354 245.314,380.354 244.990 C 380.354 244.666,380.619 244.401,380.943 244.401 C 381.267 244.401,381.532 244.224,381.532 244.008 C 381.532 243.792,381.798 243.615,382.122 243.615 C 382.446 243.615,382.711 243.350,382.711 243.026 C 382.711 242.701,382.888 242.436,383.104 242.436 C 383.320 242.436,383.497 242.171,383.497 241.847 C 383.497 241.523,383.674 241.257,383.890 241.257 C 384.572 241.257,385.855 239.718,385.855 238.900 C 385.855 238.468,386.031 238.114,386.248 238.114 C 386.464 238.114,386.640 237.849,386.640 237.525 C 386.640 237.200,386.906 236.935,387.230 236.935 C 387.597 236.935,387.819 236.564,387.819 235.953 C 387.819 235.342,388.042 234.971,388.409 234.971 C 388.733 234.971,388.998 234.705,388.998 234.381 C 388.998 234.057,389.175 233.792,389.391 233.792 C 389.607 233.792,389.784 233.350,389.784 232.809 C 389.784 232.198,390.007 231.827,390.373 231.827 C 390.697 231.827,390.963 231.562,390.963 231.238 C 390.963 230.914,391.228 230.648,391.552 230.648 C 391.912 230.648,392.141 230.282,392.141 229.708 C 392.141 229.191,392.407 228.666,392.731 228.542 C 393.055 228.417,393.320 227.967,393.320 227.540 C 393.320 227.114,393.497 226.656,393.713 226.523 C 393.929 226.389,394.106 225.671,394.106 224.928 C 394.106 223.988,394.286 223.576,394.695 223.576 C 395.084 223.576,395.285 223.187,395.285 222.439 C 395.285 221.791,395.538 221.205,395.874 221.076 C 396.244 220.934,396.464 220.333,396.464 219.462 C 396.464 218.699,396.640 218.075,396.857 218.075 C 397.073 218.075,397.250 217.102,397.250 215.914 C 397.250 214.255,397.386 213.752,397.839 213.752 C 398.302 213.752,398.428 213.207,398.428 211.198 C 398.428 209.190,398.554 208.644,399.018 208.644 C 399.529 208.644,399.607 207.029,399.607 196.464 C 399.607 185.898,399.529 184.283,399.018 184.283 C 398.554 184.283,398.428 183.737,398.428 181.729 C 398.428 179.721,398.302 179.175,397.839 179.175 C 397.386 179.175,397.250 178.673,397.250 177.014 C 397.250 175.825,397.073 174.853,396.857 174.853 C 396.640 174.853,396.464 174.228,396.464 173.465 C 396.464 172.594,396.244 171.993,395.874 171.851 C 395.550 171.727,395.285 171.196,395.285 170.673 C 395.285 170.149,395.020 169.618,394.695 169.494 C 394.371 169.369,394.106 168.844,394.106 168.327 C 394.106 167.810,393.929 167.387,393.713 167.387 C 393.497 167.387,393.320 166.945,393.320 166.405 C 393.320 165.793,393.098 165.422,392.731 165.422 C 392.338 165.422,392.141 165.029,392.141 164.244 C 392.141 163.458,391.945 163.065,391.552 163.065 C 391.185 163.065,390.963 162.694,390.963 162.083 C 390.963 161.471,390.740 161.100,390.373 161.100 C 390.007 161.100,389.784 160.729,389.784 160.118 C 389.784 159.578,389.607 159.136,389.391 159.136 C 389.175 159.136,388.998 158.870,388.998 158.546 C 388.998 158.222,388.733 157.957,388.409 157.957 C 388.042 157.957,387.819 157.586,387.819 156.974 C 387.819 156.363,387.597 155.992,387.230 155.992 C 386.906 155.992,386.640 155.727,386.640 155.403 C 386.640 155.079,386.464 154.813,386.248 154.813 C 386.031 154.813,385.855 154.548,385.855 154.224 C 385.855 153.900,385.589 153.635,385.265 153.635 C 384.898 153.635,384.676 153.263,384.676 152.652 C 384.676 152.041,384.453 151.670,384.086 151.670 C 383.762 151.670,383.497 151.480,383.497 151.247 C 383.497 150.697,381.327 148.527,380.777 148.527 C 380.544 148.527,380.354 148.336,380.354 148.103 C 380.354 147.553,378.183 145.383,377.633 145.383 C 377.401 145.383,377.210 145.212,377.210 145.004 C 377.210 144.295,374.883 142.240,374.080 142.240 C 373.632 142.240,373.281 141.981,373.281 141.650 C 373.281 141.326,373.016 141.061,372.692 141.061 C 372.367 141.061,372.102 140.796,372.102 140.472 C 372.102 140.147,371.837 139.882,371.513 139.882 C 371.189 139.882,370.923 139.705,370.923 139.489 C 370.923 139.273,370.564 139.096,370.125 139.096 C 369.686 139.096,369.225 138.831,369.101 138.507 C 368.972 138.171,368.386 137.917,367.738 137.917 C 367.113 137.917,366.601 137.743,366.601 137.529 C 366.601 136.761,365.230 135.560,364.353 135.560 C 363.861 135.560,363.458 135.383,363.458 135.167 C 363.458 134.951,363.016 134.774,362.475 134.774 C 361.864 134.774,361.493 134.551,361.493 134.185 C 361.493 133.825,361.127 133.595,360.553 133.595 C 360.036 133.595,359.511 133.330,359.386 133.006 C 359.244 132.636,358.644 132.417,357.773 132.417 C 357.009 132.417,356.385 132.240,356.385 132.024 C 356.385 131.807,355.855 131.631,355.206 131.631 C 354.420 131.631,354.028 131.434,354.028 131.041 C 354.028 130.616,353.591 130.452,352.456 130.452 C 351.321 130.452,350.884 130.288,350.884 129.862 C 350.884 129.410,350.382 129.273,348.723 129.273 C 347.534 129.273,346.562 129.096,346.562 128.880 C 346.562 128.651,345.252 128.487,343.418 128.487 C 340.886 128.487,340.275 128.373,340.275 127.898 C 340.275 127.390,338.965 127.308,330.845 127.308 C 322.724 127.308,321.415 127.390,321.415 127.898 " stroke="none" fill="#049cfc" fill-rule="evenodd"></path><path id="path1" d="" stroke="none" fill="#089cfc" fill-rule="evenodd"></path><path id="path2" d="" stroke="none" fill="#089cfc" fill-rule="evenodd"></path><path id="path3" d="" stroke="none" fill="#089cfc" fill-rule="evenodd"></path><path id="path4" d="" stroke="none" fill="#089cfc" fill-rule="evenodd"></path></g></svg>