<svg id="svg" version="1.1" xmlns="http://www.w3.org/2000/svg" xmlns:xlink="http://www.w3.org/1999/xlink" width="400" height="118.1890389197776" viewBox="0, 0, 400,118.1890389197776"><g id="svgg"><path id="path0" d="M146.667 40.662 C 146.667 40.756,146.324 40.833,145.905 40.833 C 145.460 40.833,145.042 40.934,144.900 41.076 C 144.766 41.210,144.547 41.277,144.412 41.225 C 144.277 41.173,144.167 41.214,144.167 41.316 C 144.167 41.417,143.942 41.500,143.667 41.500 C 143.392 41.500,143.167 41.575,143.167 41.667 C 143.167 41.758,142.942 41.833,142.667 41.833 C 142.392 41.833,142.167 41.908,142.167 42.000 C 142.167 42.092,142.047 42.167,141.900 42.167 C 141.510 42.167,140.459 42.686,140.147 43.033 C 139.999 43.198,139.787 43.333,139.677 43.333 C 139.384 43.333,138.962 43.803,139.081 43.997 C 139.141 44.093,139.075 44.121,138.925 44.064 C 138.783 44.009,138.667 44.047,138.667 44.149 C 138.667 44.250,138.504 44.333,138.306 44.333 C 138.107 44.333,137.988 44.377,138.041 44.430 C 138.094 44.483,137.769 44.882,137.319 45.316 C 136.869 45.750,136.500 46.164,136.500 46.236 C 136.500 46.308,136.275 46.576,136.000 46.833 C 135.725 47.090,135.500 47.404,135.500 47.530 C 135.500 47.656,135.350 47.868,135.167 48.000 C 134.983 48.132,134.832 48.355,134.830 48.495 C 134.828 48.635,134.685 48.933,134.514 49.156 C 134.342 49.380,134.239 49.661,134.285 49.781 C 134.331 49.902,134.286 50.000,134.184 50.000 C 134.083 50.000,134.000 50.175,134.000 50.389 C 134.000 50.603,133.946 50.831,133.881 50.897 C 133.815 50.962,133.751 51.215,133.738 51.458 C 133.725 51.702,133.629 51.929,133.524 51.964 C 133.419 51.999,133.333 52.284,133.333 52.597 C 133.333 52.910,133.258 53.167,133.167 53.167 C 133.075 53.167,133.000 53.542,133.000 54.000 C 133.000 54.458,132.925 54.833,132.833 54.833 C 132.727 54.833,132.667 56.364,132.667 59.093 C 132.667 61.891,132.724 63.318,132.833 63.250 C 132.937 63.186,133.000 63.498,133.000 64.073 C 133.000 64.583,133.075 65.000,133.167 65.000 C 133.258 65.000,133.333 65.262,133.333 65.583 C 133.333 65.904,133.408 66.167,133.500 66.167 C 133.592 66.167,133.667 66.392,133.667 66.667 C 133.667 66.942,133.812 67.312,133.990 67.490 C 134.186 67.686,134.240 67.837,134.127 67.874 C 134.007 67.914,133.995 68.022,134.093 68.177 C 134.177 68.309,134.256 68.454,134.270 68.500 C 134.454 69.115,134.563 69.333,134.686 69.333 C 134.767 69.333,134.833 69.467,134.833 69.630 C 134.833 69.793,134.983 70.035,135.167 70.167 C 135.350 70.299,135.500 70.510,135.500 70.637 C 135.500 70.763,135.711 71.065,135.969 71.308 C 136.226 71.551,136.488 71.886,136.551 72.052 C 136.616 72.227,136.746 72.304,136.858 72.235 C 136.971 72.165,137.007 72.188,136.944 72.288 C 136.825 72.481,138.381 74.167,138.678 74.167 C 138.782 74.167,139.076 74.392,139.333 74.667 C 139.590 74.942,139.920 75.167,140.067 75.167 C 140.213 75.167,140.333 75.242,140.333 75.333 C 140.333 75.425,140.483 75.500,140.667 75.500 C 140.850 75.500,141.000 75.572,141.000 75.659 C 141.000 75.747,141.262 75.867,141.583 75.928 C 141.904 75.988,142.167 76.104,142.167 76.185 C 142.167 76.267,142.317 76.333,142.500 76.333 C 142.683 76.333,142.833 76.399,142.833 76.479 C 142.833 76.559,143.036 76.625,143.285 76.625 C 143.533 76.625,143.764 76.709,143.799 76.813 C 143.833 76.916,144.009 77.000,144.190 77.000 C 144.383 77.000,144.474 76.925,144.409 76.821 C 144.348 76.723,144.456 76.741,144.649 76.861 C 144.842 76.982,145.000 77.137,145.000 77.207 C 145.000 77.276,145.446 77.333,145.990 77.333 C 146.535 77.333,147.027 77.408,147.083 77.500 C 147.229 77.736,156.119 77.726,156.198 77.490 C 156.230 77.393,156.574 77.309,156.962 77.304 C 157.349 77.298,157.667 77.228,157.667 77.147 C 157.667 77.066,157.967 77.000,158.333 77.000 C 158.700 77.000,159.000 76.925,159.000 76.833 C 159.000 76.742,159.225 76.667,159.500 76.667 C 159.775 76.667,160.000 76.592,160.000 76.500 C 160.000 76.408,160.150 76.333,160.333 76.333 C 160.517 76.333,160.667 76.262,160.667 76.174 C 160.667 76.087,160.929 75.966,161.250 75.906 C 161.571 75.845,161.833 75.730,161.833 75.648 C 161.833 75.567,161.983 75.500,162.167 75.500 C 162.350 75.500,162.500 75.425,162.500 75.333 C 162.500 75.242,162.601 75.167,162.725 75.167 C 162.849 75.167,163.186 74.942,163.474 74.667 C 163.762 74.392,164.033 74.167,164.078 74.167 C 164.252 74.167,166.081 72.286,166.042 72.147 C 166.019 72.066,166.082 72.019,166.182 72.042 C 166.282 72.065,166.451 71.934,166.557 71.752 C 166.663 71.570,166.881 71.299,167.042 71.149 C 167.202 71.000,167.333 70.787,167.333 70.677 C 167.333 70.567,167.451 70.358,167.596 70.214 C 167.795 70.015,167.809 69.921,167.655 69.826 C 167.509 69.736,167.553 69.636,167.809 69.477 C 168.006 69.354,168.167 69.159,168.167 69.043 C 168.167 68.928,168.242 68.833,168.333 68.833 C 168.425 68.833,168.500 68.608,168.500 68.333 C 168.500 68.058,168.575 67.833,168.667 67.833 C 168.758 67.833,168.833 67.683,168.833 67.500 C 168.833 67.317,168.908 67.167,169.000 67.167 C 169.092 67.167,169.167 66.867,169.167 66.500 C 169.167 66.133,169.242 65.833,169.333 65.833 C 169.425 65.833,169.500 65.571,169.500 65.250 C 169.500 64.929,169.567 64.667,169.649 64.667 C 169.732 64.667,169.804 64.236,169.810 63.710 C 169.817 63.184,169.899 62.728,169.994 62.696 C 170.227 62.619,170.233 55.500,170.000 55.500 C 169.906 55.500,169.833 55.035,169.833 54.437 C 169.833 53.699,169.758 53.311,169.585 53.168 C 169.423 53.034,169.373 52.817,169.441 52.546 C 169.505 52.291,169.464 52.081,169.335 52.001 C 169.220 51.930,169.125 51.680,169.125 51.445 C 169.125 51.211,169.023 50.981,168.899 50.933 C 168.774 50.885,168.717 50.731,168.771 50.590 C 168.825 50.449,168.786 50.333,168.684 50.333 C 168.583 50.333,168.500 50.182,168.500 49.998 C 168.500 49.683,168.206 49.020,167.984 48.833 C 167.929 48.788,167.834 48.544,167.772 48.292 C 167.711 48.040,167.587 47.833,167.497 47.833 C 167.407 47.833,167.333 47.713,167.333 47.567 C 167.333 47.420,167.108 47.090,166.833 46.833 C 166.558 46.576,166.333 46.302,166.333 46.224 C 166.333 46.021,165.193 45.000,164.967 45.000 C 164.863 45.000,164.823 44.955,164.879 44.899 C 164.991 44.787,164.261 44.000,164.044 44.000 C 163.969 44.000,163.799 43.850,163.667 43.667 C 163.535 43.483,163.293 43.333,163.130 43.333 C 162.967 43.333,162.833 43.272,162.833 43.198 C 162.833 42.998,161.494 42.317,161.317 42.426 C 161.235 42.478,161.166 42.459,161.165 42.385 C 161.164 42.208,160.350 41.833,159.967 41.833 C 159.802 41.833,159.667 41.758,159.667 41.667 C 159.667 41.575,159.442 41.500,159.167 41.500 C 158.892 41.500,158.667 41.436,158.667 41.359 C 158.667 41.281,158.424 41.211,158.128 41.202 C 157.832 41.194,157.564 41.107,157.531 41.010 C 157.499 40.913,157.103 40.833,156.653 40.833 C 156.202 40.833,155.833 40.764,155.833 40.680 C 155.833 40.590,153.925 40.518,151.250 40.508 C 148.210 40.496,146.667 40.548,146.667 40.662 M287.667 40.661 C 287.667 40.756,287.329 40.833,286.917 40.833 C 286.504 40.833,286.167 40.908,286.167 41.000 C 286.167 41.092,285.867 41.167,285.500 41.167 C 285.133 41.167,284.833 41.242,284.833 41.333 C 284.833 41.425,284.608 41.500,284.333 41.500 C 284.058 41.500,283.833 41.575,283.833 41.667 C 283.833 41.758,283.646 41.833,283.417 41.833 C 283.188 41.833,283.000 41.908,283.000 42.000 C 283.000 42.092,282.913 42.167,282.806 42.167 C 282.495 42.167,281.333 42.718,281.333 42.865 C 281.333 42.939,281.200 43.000,281.037 43.000 C 280.874 43.000,280.632 43.150,280.500 43.333 C 280.368 43.517,280.200 43.667,280.127 43.667 C 280.054 43.667,279.519 44.135,278.939 44.708 C 278.359 45.281,277.729 45.856,277.539 45.985 C 277.350 46.115,277.094 46.415,276.972 46.652 C 276.850 46.889,276.656 47.182,276.542 47.304 C 276.427 47.425,276.333 47.668,276.333 47.845 C 276.333 48.022,276.258 48.167,276.167 48.167 C 276.075 48.167,276.000 48.317,276.000 48.500 C 276.000 48.683,275.925 48.833,275.833 48.833 C 275.742 48.833,275.667 48.946,275.667 49.083 C 275.667 49.221,275.592 49.333,275.500 49.333 C 275.408 49.333,275.333 49.483,275.333 49.667 C 275.333 49.850,275.258 50.000,275.167 50.000 C 275.075 50.000,275.000 50.225,275.000 50.500 C 275.000 50.775,274.925 51.000,274.833 51.000 C 274.742 51.000,274.667 51.225,274.667 51.500 C 274.667 51.775,274.592 52.000,274.500 52.000 C 274.408 52.000,274.333 52.337,274.333 52.750 C 274.333 53.163,274.258 53.500,274.167 53.500 C 274.074 53.500,274.000 53.944,274.000 54.500 C 274.000 55.056,273.926 55.500,273.833 55.500 C 273.728 55.500,273.667 56.747,273.667 58.907 C 273.667 60.998,273.731 62.353,273.833 62.417 C 273.925 62.473,274.000 63.003,274.000 63.593 C 274.000 64.198,274.073 64.667,274.167 64.667 C 274.258 64.667,274.333 64.929,274.333 65.250 C 274.333 65.571,274.408 65.833,274.500 65.833 C 274.592 65.833,274.667 66.058,274.667 66.333 C 274.667 66.608,274.742 66.833,274.833 66.833 C 274.925 66.833,275.000 67.058,275.000 67.333 C 275.000 67.608,275.075 67.833,275.167 67.833 C 275.258 67.833,275.333 67.983,275.333 68.167 C 275.333 68.350,275.408 68.500,275.500 68.500 C 275.592 68.500,275.667 68.650,275.667 68.833 C 275.667 69.017,275.742 69.167,275.833 69.167 C 275.925 69.167,276.000 69.279,276.000 69.417 C 276.000 69.554,276.075 69.667,276.167 69.667 C 276.258 69.667,276.333 69.811,276.333 69.988 C 276.333 70.165,276.446 70.422,276.583 70.560 C 276.721 70.697,276.833 70.871,276.834 70.946 C 276.834 71.219,277.653 72.028,277.822 71.923 C 277.925 71.860,277.957 71.917,277.901 72.064 C 277.810 72.302,279.819 74.500,280.127 74.500 C 280.200 74.500,280.368 74.650,280.500 74.833 C 280.632 75.017,280.839 75.167,280.960 75.167 C 281.082 75.167,281.341 75.316,281.536 75.498 C 281.732 75.680,282.141 75.876,282.446 75.933 C 282.751 75.990,283.000 76.104,283.000 76.185 C 283.000 76.267,283.188 76.333,283.417 76.333 C 283.646 76.333,283.833 76.408,283.833 76.500 C 283.833 76.592,284.058 76.667,284.333 76.667 C 284.608 76.667,284.833 76.732,284.833 76.813 C 284.833 76.893,285.036 76.958,285.285 76.958 C 285.533 76.958,285.764 77.043,285.799 77.146 C 285.835 77.254,286.243 77.333,286.764 77.333 C 287.260 77.333,287.667 77.408,287.667 77.500 C 287.667 77.732,297.118 77.728,297.196 77.496 C 297.227 77.403,297.533 77.316,297.876 77.303 C 298.219 77.290,298.500 77.216,298.500 77.140 C 298.500 77.063,298.762 77.000,299.083 77.000 C 299.404 77.000,299.667 76.925,299.667 76.833 C 299.667 76.742,299.817 76.667,300.000 76.667 C 300.183 76.667,300.333 76.592,300.333 76.500 C 300.333 76.408,300.558 76.333,300.833 76.333 C 301.108 76.333,301.333 76.272,301.333 76.198 C 301.333 76.123,301.700 75.903,302.147 75.707 C 302.595 75.511,303.112 75.160,303.296 74.926 C 303.481 74.692,303.716 74.500,303.819 74.500 C 304.054 74.500,305.833 72.736,305.833 72.504 C 305.833 72.410,305.896 72.333,305.972 72.333 C 306.048 72.333,306.217 72.127,306.347 71.875 C 306.477 71.623,306.677 71.318,306.792 71.196 C 306.906 71.075,307.000 70.832,307.000 70.655 C 307.000 70.478,307.075 70.333,307.167 70.333 C 307.258 70.333,307.333 70.183,307.333 70.000 C 307.333 69.817,307.408 69.667,307.500 69.667 C 307.592 69.667,307.667 69.554,307.667 69.417 C 307.667 69.279,307.742 69.167,307.833 69.167 C 307.925 69.167,308.000 69.017,308.000 68.833 C 308.000 68.650,308.075 68.500,308.167 68.500 C 308.258 68.500,308.333 68.275,308.333 68.000 C 308.333 67.725,308.408 67.500,308.500 67.500 C 308.592 67.500,308.667 67.275,308.667 67.000 C 308.667 66.725,308.742 66.500,308.833 66.500 C 309.090 66.500,309.031 65.173,308.762 64.905 C 308.631 64.774,308.331 64.667,308.095 64.667 C 307.860 64.667,307.667 64.592,307.667 64.500 C 307.667 64.408,307.484 64.333,307.260 64.333 C 307.036 64.333,306.807 64.258,306.750 64.167 C 306.693 64.075,306.468 64.000,306.250 64.000 C 306.032 64.000,305.807 63.925,305.750 63.833 C 305.693 63.742,305.389 63.667,305.073 63.667 C 304.758 63.667,304.500 63.592,304.500 63.500 C 304.500 63.408,304.275 63.333,304.000 63.333 C 303.725 63.333,303.500 63.267,303.500 63.186 C 303.500 63.037,302.808 62.854,301.967 62.780 C 301.720 62.758,301.464 62.686,301.398 62.620 C 301.332 62.554,301.065 62.500,300.806 62.500 C 300.546 62.500,300.333 62.425,300.333 62.333 C 300.333 62.077,299.007 62.136,298.738 62.405 C 298.607 62.536,298.500 62.873,298.500 63.155 C 298.500 63.436,298.425 63.667,298.333 63.667 C 298.242 63.667,298.167 63.817,298.167 64.000 C 298.167 64.183,298.083 64.333,297.981 64.333 C 297.876 64.333,297.833 64.481,297.882 64.670 C 297.931 64.855,297.865 65.112,297.735 65.241 C 297.606 65.370,297.500 65.545,297.500 65.629 C 297.500 65.713,297.352 65.916,297.171 66.080 C 296.989 66.244,296.874 66.431,296.914 66.496 C 297.030 66.683,295.902 67.833,295.603 67.833 C 295.454 67.833,295.333 67.908,295.333 68.000 C 295.333 68.092,295.183 68.167,295.000 68.167 C 294.817 68.167,294.667 68.242,294.667 68.333 C 294.667 68.425,294.523 68.500,294.347 68.500 C 294.172 68.500,294.000 68.582,293.967 68.683 C 293.895 68.897,289.985 68.904,289.840 68.691 C 289.791 68.617,289.506 68.451,289.208 68.321 C 288.910 68.191,288.667 68.029,288.667 67.959 C 288.667 67.890,288.547 67.833,288.400 67.833 C 288.254 67.833,287.924 67.608,287.667 67.333 C 287.410 67.058,287.113 66.833,287.007 66.833 C 286.900 66.833,286.852 66.772,286.898 66.697 C 286.944 66.622,286.801 66.191,286.580 65.739 C 286.358 65.287,286.175 64.752,286.172 64.552 C 286.169 64.351,286.092 64.140,286.000 64.083 C 285.908 64.027,285.833 63.654,285.833 63.254 C 285.833 62.855,285.753 62.501,285.656 62.469 C 285.423 62.391,285.436 55.774,285.670 55.694 C 285.760 55.664,285.833 55.387,285.833 55.079 C 285.833 54.771,285.917 54.468,286.018 54.405 C 286.130 54.336,286.165 54.052,286.106 53.687 C 286.047 53.320,286.066 53.173,286.153 53.314 C 286.295 53.541,286.619 52.948,286.531 52.620 C 286.512 52.549,286.610 52.447,286.748 52.394 C 286.887 52.341,287.000 52.226,287.000 52.139 C 287.000 52.052,286.913 52.034,286.808 52.099 C 286.687 52.174,286.660 52.145,286.736 52.023 C 286.802 51.916,286.927 51.871,287.013 51.925 C 287.099 51.978,287.221 51.885,287.285 51.719 C 287.437 51.322,288.099 50.667,288.348 50.667 C 288.456 50.667,288.666 50.530,288.814 50.362 C 288.962 50.195,289.327 49.952,289.625 49.822 C 289.923 49.692,290.167 49.529,290.167 49.459 C 290.167 49.390,291.029 49.333,292.083 49.333 C 293.250 49.333,294.000 49.399,294.000 49.500 C 294.000 49.592,294.208 49.667,294.463 49.667 C 294.735 49.667,295.026 49.804,295.167 50.000 C 295.299 50.183,295.540 50.333,295.703 50.333 C 295.867 50.333,296.001 50.427,296.003 50.542 C 296.004 50.681,296.059 50.667,296.167 50.500 C 296.304 50.288,296.329 50.295,296.331 50.549 C 296.332 50.714,296.521 51.036,296.750 51.265 C 296.979 51.494,297.167 51.761,297.167 51.859 C 297.167 51.956,297.271 51.996,297.398 51.947 C 297.560 51.885,297.604 51.954,297.545 52.179 C 297.499 52.356,297.545 52.500,297.647 52.500 C 297.750 52.500,297.833 52.725,297.833 53.000 C 297.833 53.275,297.908 53.500,298.000 53.500 C 298.092 53.500,298.167 53.647,298.167 53.827 C 298.167 54.120,298.282 54.153,299.250 54.146 C 299.846 54.141,300.333 54.069,300.333 53.986 C 300.333 53.902,300.633 53.833,301.000 53.833 C 301.367 53.833,301.667 53.758,301.667 53.667 C 301.667 53.575,302.000 53.500,302.407 53.500 C 302.814 53.500,303.193 53.425,303.250 53.333 C 303.307 53.242,303.611 53.167,303.927 53.167 C 304.242 53.167,304.500 53.092,304.500 53.000 C 304.500 52.908,304.651 52.833,304.836 52.833 C 305.020 52.833,305.322 52.740,305.507 52.625 C 305.784 52.453,305.871 52.461,306.003 52.667 C 306.090 52.804,306.163 52.833,306.164 52.731 C 306.166 52.627,306.692 52.482,307.375 52.398 L 308.583 52.250 308.636 51.608 C 308.671 51.185,308.628 51.004,308.511 51.077 C 308.398 51.146,308.333 50.971,308.333 50.593 C 308.333 50.267,308.258 50.000,308.167 50.000 C 308.075 50.000,308.000 49.850,308.000 49.667 C 308.000 49.483,307.925 49.333,307.833 49.333 C 307.742 49.333,307.667 49.221,307.667 49.083 C 307.667 48.946,307.592 48.833,307.500 48.833 C 307.408 48.833,307.333 48.683,307.333 48.500 C 307.333 48.317,307.258 48.167,307.167 48.167 C 307.075 48.167,307.000 48.017,307.000 47.833 C 307.000 47.650,306.927 47.500,306.839 47.500 C 306.750 47.500,306.714 47.404,306.759 47.286 C 306.805 47.168,306.690 46.909,306.504 46.709 C 306.319 46.510,306.167 46.299,306.167 46.240 C 306.167 46.067,303.008 43.000,302.829 43.000 C 302.740 43.000,302.667 42.933,302.667 42.851 C 302.667 42.594,302.117 42.479,301.956 42.703 C 301.846 42.855,301.829 42.831,301.898 42.620 C 301.971 42.392,301.878 42.301,301.497 42.224 C 301.223 42.170,301.000 42.059,301.000 41.979 C 301.000 41.899,300.775 41.833,300.500 41.833 C 300.225 41.833,299.999 41.777,299.999 41.708 C 299.997 41.507,299.140 41.167,298.633 41.167 C 298.377 41.167,298.167 41.092,298.167 41.000 C 298.167 40.908,297.834 40.833,297.427 40.833 C 297.019 40.833,296.644 40.764,296.592 40.680 C 296.456 40.460,287.667 40.442,287.667 40.661 M153.333 49.500 C 153.333 49.592,153.558 49.667,153.833 49.667 C 154.108 49.667,154.333 49.742,154.333 49.833 C 154.333 49.925,154.429 50.000,154.547 50.000 C 154.664 50.000,154.868 50.150,155.000 50.333 C 155.132 50.517,155.340 50.667,155.461 50.667 C 155.741 50.667,156.346 51.280,156.653 51.875 C 156.783 52.127,156.952 52.333,157.028 52.333 C 157.104 52.333,157.167 52.446,157.167 52.583 C 157.167 52.721,157.242 52.833,157.333 52.833 C 157.425 52.833,157.500 52.979,157.500 53.157 C 157.500 53.335,157.570 53.524,157.656 53.577 C 157.742 53.630,157.817 53.803,157.823 53.962 C 157.853 54.742,158.052 55.667,158.190 55.667 C 158.281 55.667,158.337 57.079,158.327 59.085 C 158.317 60.966,158.247 62.466,158.171 62.419 C 158.095 62.373,157.991 62.690,157.940 63.126 C 157.838 63.978,157.729 64.583,157.676 64.583 C 157.658 64.583,157.616 64.796,157.582 65.055 C 157.548 65.315,157.365 65.661,157.177 65.825 C 156.988 65.988,156.833 66.172,156.833 66.232 C 156.833 66.457,155.333 67.833,155.088 67.833 C 154.948 67.833,154.833 67.908,154.833 68.000 C 154.833 68.092,154.721 68.167,154.583 68.167 C 154.446 68.167,154.333 68.242,154.333 68.333 C 154.333 68.425,154.115 68.500,153.847 68.500 C 153.580 68.500,153.334 68.583,153.300 68.684 C 153.222 68.917,149.608 68.897,149.528 68.663 C 149.497 68.573,149.253 68.500,148.986 68.500 C 148.719 68.500,148.500 68.425,148.500 68.333 C 148.500 68.242,148.350 68.167,148.167 68.167 C 147.983 68.167,147.833 68.092,147.833 68.000 C 147.833 67.908,147.756 67.833,147.662 67.833 C 147.461 67.833,146.000 66.404,146.000 66.208 C 146.000 66.134,145.850 65.965,145.667 65.833 C 145.483 65.701,145.333 65.460,145.333 65.297 C 145.333 65.133,145.258 65.000,145.167 65.000 C 145.075 65.000,145.000 64.775,145.000 64.500 C 145.000 64.225,144.925 64.000,144.833 64.000 C 144.742 64.000,144.667 63.700,144.667 63.333 C 144.667 62.967,144.592 62.667,144.500 62.667 C 144.404 62.667,144.333 62.139,144.333 61.417 C 144.333 60.694,144.263 60.167,144.167 60.167 C 144.073 60.167,144.000 59.694,144.000 59.083 C 144.000 58.472,144.073 58.000,144.167 58.000 C 144.263 58.000,144.333 57.472,144.333 56.750 C 144.333 56.028,144.404 55.500,144.500 55.500 C 144.592 55.500,144.667 55.200,144.667 54.833 C 144.667 54.467,144.742 54.167,144.833 54.167 C 144.925 54.167,145.000 53.942,145.000 53.667 C 145.000 53.392,145.075 53.167,145.167 53.167 C 145.258 53.167,145.333 53.033,145.333 52.870 C 145.333 52.707,145.483 52.465,145.667 52.333 C 145.850 52.201,146.000 52.033,146.000 51.959 C 146.000 51.762,147.461 50.333,147.662 50.333 C 147.756 50.333,147.833 50.258,147.833 50.167 C 147.833 50.075,147.983 50.000,148.167 50.000 C 148.350 50.000,148.500 49.925,148.500 49.833 C 148.500 49.742,148.654 49.667,148.843 49.667 C 149.032 49.667,149.140 49.592,149.083 49.500 C 149.017 49.392,149.748 49.333,151.157 49.333 C 152.497 49.333,153.333 49.397,153.333 49.500 M189.547 50.548 C 189.606 50.703,189.475 50.744,189.064 50.696 C 188.723 50.656,188.500 50.703,188.500 50.815 C 188.500 50.917,188.387 51.000,188.250 51.000 C 188.112 51.000,188.000 51.075,188.000 51.167 C 188.000 51.258,187.850 51.333,187.667 51.333 C 187.483 51.333,187.333 51.408,187.333 51.500 C 187.333 51.592,187.218 51.667,187.077 51.667 C 186.937 51.667,186.655 51.818,186.452 52.004 C 186.249 52.189,185.832 52.564,185.524 52.837 C 185.216 53.110,185.016 53.333,185.078 53.333 C 185.140 53.333,185.078 53.446,184.940 53.583 C 184.534 53.990,184.500 53.900,184.500 52.417 L 184.500 51.000 179.583 51.000 L 174.667 51.000 174.667 68.917 L 174.667 86.833 179.992 86.833 L 185.316 86.833 185.329 81.301 C 185.336 78.259,185.367 75.744,185.399 75.712 C 185.497 75.614,186.333 76.045,186.333 76.193 C 186.333 76.270,186.483 76.333,186.667 76.333 C 186.850 76.333,187.000 76.408,187.000 76.500 C 187.000 76.592,187.192 76.667,187.427 76.667 C 187.668 76.667,187.808 76.739,187.750 76.833 C 187.693 76.925,187.801 77.000,187.990 77.000 C 188.179 77.000,188.333 77.075,188.333 77.167 C 188.333 77.258,188.596 77.333,188.917 77.333 C 189.237 77.333,189.500 77.408,189.500 77.500 C 189.500 77.783,195.306 77.718,195.592 77.432 C 195.722 77.302,195.979 77.236,196.164 77.284 C 196.353 77.334,196.500 77.291,196.500 77.186 C 196.500 77.084,196.725 77.000,197.000 77.000 C 197.275 77.000,197.500 76.925,197.500 76.833 C 197.500 76.742,197.612 76.667,197.750 76.667 C 197.887 76.667,198.000 76.550,198.000 76.407 C 198.000 76.264,198.075 76.193,198.167 76.250 C 198.258 76.307,198.333 76.274,198.333 76.177 C 198.333 76.079,198.482 76.000,198.664 76.000 C 199.139 76.000,201.419 73.666,201.662 72.932 C 201.770 72.603,201.928 72.333,202.013 72.333 C 202.097 72.333,202.167 72.183,202.167 72.000 C 202.167 71.817,202.242 71.667,202.333 71.667 C 202.425 71.667,202.500 71.517,202.500 71.333 C 202.500 71.150,202.575 71.000,202.667 71.000 C 202.758 71.000,202.833 70.775,202.833 70.500 C 202.833 70.225,202.910 70.000,203.003 70.000 C 203.096 70.000,203.154 69.762,203.132 69.471 C 203.109 69.169,203.179 68.913,203.296 68.874 C 203.408 68.836,203.500 68.695,203.500 68.560 C 203.500 68.411,203.417 68.360,203.292 68.431 C 203.125 68.525,203.125 68.504,203.292 68.324 C 203.406 68.201,203.500 67.740,203.500 67.300 C 203.500 66.860,203.575 66.500,203.667 66.500 C 203.769 66.500,203.833 65.667,203.833 64.333 C 203.833 63.000,203.769 62.167,203.667 62.167 C 203.571 62.167,203.500 61.667,203.500 61.000 C 203.500 60.333,203.429 59.833,203.333 59.833 C 203.242 59.833,203.167 59.571,203.167 59.250 C 203.167 58.929,203.092 58.667,203.000 58.667 C 202.908 58.667,202.833 58.442,202.833 58.167 C 202.833 57.892,202.758 57.667,202.667 57.667 C 202.575 57.667,202.500 57.442,202.500 57.167 C 202.500 56.892,202.425 56.667,202.333 56.667 C 202.242 56.667,202.167 56.512,202.167 56.323 C 202.167 56.135,202.092 56.027,202.000 56.083 C 201.908 56.140,201.833 56.037,201.833 55.855 C 201.833 55.673,201.721 55.411,201.583 55.274 C 201.446 55.136,201.333 54.923,201.333 54.799 C 201.333 54.675,201.183 54.465,201.000 54.333 C 200.817 54.201,200.667 54.012,200.667 53.912 C 200.667 53.813,200.404 53.445,200.083 53.095 C 199.762 52.745,199.500 52.517,199.500 52.588 C 199.500 52.659,199.360 52.556,199.189 52.359 C 199.018 52.161,198.772 52.000,198.642 52.000 C 198.513 52.000,198.299 51.850,198.167 51.667 C 198.035 51.483,197.830 51.333,197.713 51.333 C 197.596 51.333,197.500 51.258,197.500 51.167 C 197.500 51.075,197.275 51.000,197.000 51.000 C 196.725 51.000,196.500 50.925,196.500 50.833 C 196.500 50.742,196.275 50.667,196.000 50.667 C 195.725 50.667,195.500 50.592,195.500 50.500 C 195.500 50.395,194.383 50.333,192.482 50.333 C 190.091 50.333,189.481 50.378,189.547 50.548 M217.467 50.515 C 217.433 50.617,217.127 50.700,216.786 50.700 C 216.445 50.700,216.167 50.767,216.167 50.850 C 216.167 50.932,215.985 51.000,215.764 51.000 C 215.542 51.000,215.336 51.074,215.306 51.165 C 215.275 51.256,215.044 51.347,214.792 51.368 C 214.540 51.389,214.333 51.465,214.333 51.536 C 214.333 51.608,214.183 51.667,214.000 51.667 C 213.817 51.667,213.667 51.742,213.667 51.833 C 213.667 51.925,213.517 52.000,213.333 52.000 C 213.150 52.000,213.000 52.075,213.000 52.167 C 213.000 52.258,212.877 52.333,212.727 52.333 C 212.578 52.333,212.278 52.525,212.061 52.759 C 211.844 52.992,211.667 53.104,211.667 53.006 C 211.667 52.908,211.116 53.373,210.442 54.039 C 209.768 54.705,209.242 55.297,209.272 55.354 C 209.302 55.411,209.140 55.660,208.911 55.907 C 208.682 56.154,208.538 56.426,208.590 56.512 C 208.643 56.597,208.607 56.667,208.510 56.667 C 208.413 56.667,208.333 56.817,208.333 57.000 C 208.333 57.183,208.258 57.333,208.167 57.333 C 208.075 57.333,208.000 57.483,208.000 57.667 C 208.000 57.850,207.925 58.000,207.833 58.000 C 207.742 58.000,207.667 58.150,207.667 58.333 C 207.667 58.517,207.603 58.667,207.525 58.667 C 207.448 58.667,207.377 58.909,207.369 59.205 C 207.360 59.501,207.274 59.770,207.177 59.802 C 207.080 59.835,207.000 60.230,207.000 60.681 C 207.000 61.131,206.931 61.500,206.847 61.500 C 206.762 61.500,206.686 62.609,206.676 64.000 C 206.664 65.611,206.718 66.500,206.829 66.500 C 206.927 66.500,207.000 66.927,207.000 67.500 C 207.000 68.056,207.074 68.500,207.167 68.500 C 207.258 68.500,207.333 68.688,207.333 68.917 C 207.333 69.146,207.408 69.333,207.500 69.333 C 207.592 69.333,207.667 69.483,207.667 69.667 C 207.667 69.850,207.742 70.000,207.833 70.000 C 207.925 70.000,208.000 70.225,208.000 70.500 C 208.000 70.775,208.061 71.000,208.135 71.000 C 208.209 71.000,208.410 71.319,208.581 71.708 C 208.888 72.403,209.206 72.833,209.415 72.833 C 209.472 72.833,209.466 72.747,209.401 72.641 C 209.326 72.521,209.355 72.494,209.477 72.569 C 209.584 72.635,209.626 72.763,209.571 72.854 C 209.515 72.944,209.645 73.172,209.860 73.360 C 210.074 73.549,210.230 73.772,210.206 73.857 C 210.153 74.048,210.920 74.833,211.161 74.833 C 211.257 74.833,211.577 75.064,211.872 75.345 C 212.166 75.626,212.615 75.898,212.870 75.949 C 213.125 76.000,213.333 76.107,213.333 76.188 C 213.333 76.268,213.525 76.333,213.760 76.333 C 214.002 76.333,214.142 76.405,214.083 76.500 C 214.027 76.592,214.135 76.667,214.323 76.667 C 214.512 76.667,214.667 76.742,214.667 76.833 C 214.667 76.925,214.929 77.000,215.250 77.000 C 215.571 77.000,215.833 77.075,215.833 77.167 C 215.833 77.258,216.133 77.333,216.500 77.333 C 216.867 77.333,217.167 77.408,217.167 77.500 C 217.167 77.607,218.861 77.667,221.917 77.667 C 224.972 77.667,226.667 77.607,226.667 77.500 C 226.667 77.408,227.042 77.333,227.500 77.333 C 227.958 77.333,228.333 77.258,228.333 77.167 C 228.333 77.075,228.596 77.000,228.917 77.000 C 229.237 77.000,229.500 76.925,229.500 76.833 C 229.500 76.742,229.612 76.667,229.750 76.667 C 229.887 76.667,230.001 76.573,230.003 76.458 C 230.004 76.317,230.062 76.331,230.182 76.500 C 230.315 76.688,230.380 76.698,230.443 76.542 C 230.490 76.427,230.672 76.333,230.847 76.333 C 231.023 76.333,231.167 76.258,231.167 76.167 C 231.167 76.075,231.307 76.000,231.480 76.000 C 231.652 76.000,231.886 75.887,232.000 75.750 C 232.114 75.612,232.278 75.500,232.363 75.500 C 232.576 75.500,235.662 72.354,235.686 72.111 C 235.697 72.004,235.697 71.860,235.686 71.792 C 235.676 71.723,235.779 71.667,235.917 71.667 C 236.054 71.667,236.167 71.544,236.167 71.395 C 236.167 71.245,236.323 70.987,236.513 70.822 C 237.359 70.089,236.920 69.755,235.042 69.703 C 234.102 69.676,233.333 69.601,233.333 69.534 C 233.333 69.468,232.621 69.415,231.750 69.415 C 230.879 69.416,230.167 69.360,230.167 69.292 C 230.167 69.223,229.242 69.167,228.111 69.167 L 226.055 69.167 225.592 69.687 C 225.220 70.104,225.173 70.238,225.356 70.364 C 225.521 70.479,225.491 70.496,225.245 70.428 C 225.021 70.366,224.825 70.447,224.666 70.667 C 224.526 70.862,224.235 71.000,223.963 71.000 C 223.708 71.000,223.500 71.075,223.500 71.167 C 223.500 71.265,222.917 71.333,222.083 71.333 C 221.250 71.333,220.667 71.265,220.667 71.167 C 220.667 71.075,220.517 71.000,220.333 71.000 C 220.150 71.000,220.000 70.925,220.000 70.833 C 220.000 70.742,219.880 70.667,219.734 70.667 C 219.414 70.667,218.500 69.727,218.500 69.399 C 218.500 69.271,218.425 69.167,218.333 69.167 C 218.242 69.167,218.167 69.017,218.167 68.833 C 218.167 68.650,218.092 68.500,218.000 68.500 C 217.908 68.500,217.833 68.275,217.833 68.000 C 217.833 67.725,217.758 67.500,217.667 67.500 C 217.575 67.500,217.500 67.275,217.500 67.000 L 217.500 66.500 227.333 66.500 L 237.167 66.500 237.167 63.833 C 237.167 62.167,237.104 61.167,237.000 61.167 C 236.908 61.167,236.833 60.834,236.833 60.427 C 236.833 60.019,236.758 59.640,236.667 59.583 C 236.575 59.527,236.500 59.297,236.500 59.073 C 236.500 58.850,236.425 58.667,236.333 58.667 C 236.242 58.667,236.167 58.442,236.167 58.167 C 236.167 57.892,236.101 57.667,236.021 57.667 C 235.941 57.667,235.830 57.440,235.774 57.163 C 235.656 56.571,234.937 55.452,234.777 55.612 C 234.716 55.673,234.667 55.597,234.667 55.444 C 234.667 55.292,234.592 55.167,234.500 55.167 C 234.408 55.167,234.333 55.052,234.333 54.912 C 234.333 54.619,232.936 53.167,232.653 53.167 C 232.550 53.167,232.317 52.979,232.137 52.750 C 231.957 52.521,231.665 52.333,231.488 52.333 C 231.311 52.333,231.167 52.258,231.167 52.167 C 231.167 52.075,231.017 52.000,230.833 52.000 C 230.650 52.000,230.500 51.925,230.500 51.833 C 230.500 51.742,230.350 51.667,230.167 51.667 C 229.983 51.667,229.833 51.592,229.833 51.500 C 229.833 51.408,229.608 51.333,229.333 51.333 C 229.058 51.333,228.833 51.258,228.833 51.167 C 228.833 51.075,228.646 51.000,228.417 51.000 C 228.188 51.000,228.000 50.925,228.000 50.833 C 228.000 50.742,227.625 50.667,227.167 50.667 C 226.708 50.667,226.333 50.595,226.333 50.508 C 226.333 50.270,217.547 50.277,217.467 50.515 M256.833 50.500 C 256.833 50.592,256.571 50.667,256.250 50.667 C 255.929 50.667,255.667 50.742,255.667 50.833 C 255.667 50.925,255.517 51.000,255.333 51.000 C 255.150 51.000,255.000 51.075,255.000 51.167 C 255.000 51.258,254.867 51.333,254.703 51.333 C 254.540 51.333,254.299 51.483,254.167 51.667 C 254.035 51.850,253.819 52.000,253.688 52.000 C 253.557 52.000,253.199 52.259,252.892 52.575 C 252.585 52.891,252.333 53.075,252.333 52.984 C 252.333 52.893,252.142 53.010,251.908 53.244 C 251.674 53.478,251.527 53.743,251.583 53.833 C 251.640 53.926,251.572 53.953,251.425 53.897 C 251.220 53.818,251.167 53.509,251.167 52.399 L 251.167 51.000 246.250 51.000 L 241.333 51.000 241.333 64.000 L 241.333 77.000 246.583 77.000 L 251.833 77.000 251.833 69.833 C 251.833 65.167,251.891 62.667,252.000 62.667 C 252.092 62.667,252.167 62.375,252.167 62.019 C 252.167 61.663,252.279 61.157,252.416 60.894 C 252.553 60.631,252.665 60.302,252.666 60.162 C 252.666 60.022,252.813 59.802,252.991 59.673 C 253.169 59.545,253.281 59.384,253.240 59.317 C 253.198 59.249,253.389 59.144,253.663 59.084 C 253.938 59.024,254.206 58.905,254.258 58.821 C 254.606 58.257,257.833 58.900,257.833 59.532 C 257.833 59.698,257.908 59.833,258.000 59.833 C 258.092 59.833,258.167 59.983,258.167 60.167 C 258.167 60.350,258.242 60.500,258.333 60.500 C 258.425 60.500,258.500 60.800,258.500 61.167 C 258.500 61.533,258.575 61.833,258.667 61.833 C 258.775 61.833,258.833 64.472,258.833 69.417 L 258.833 77.000 264.083 77.000 L 269.333 77.000 269.333 67.333 C 269.333 61.000,269.276 57.667,269.167 57.667 C 269.075 57.667,269.000 57.334,269.000 56.927 C 269.000 56.519,268.925 56.140,268.833 56.083 C 268.742 56.027,268.667 55.797,268.667 55.573 C 268.667 55.350,268.592 55.167,268.500 55.167 C 268.408 55.167,268.333 55.017,268.333 54.833 C 268.333 54.650,268.258 54.500,268.167 54.500 C 268.075 54.500,268.000 54.350,268.000 54.167 C 268.000 53.983,267.925 53.833,267.833 53.833 C 267.742 53.833,267.667 53.717,267.667 53.576 C 267.667 53.202,266.871 52.459,266.624 52.601 C 266.510 52.667,266.468 52.663,266.532 52.592 C 266.685 52.421,265.902 51.651,265.631 51.706 C 265.513 51.730,265.435 51.656,265.458 51.542 C 265.481 51.427,265.350 51.333,265.167 51.333 C 264.983 51.333,264.833 51.258,264.833 51.167 C 264.833 51.075,264.683 51.000,264.500 51.000 C 264.317 51.000,264.167 50.925,264.167 50.833 C 264.167 50.742,263.942 50.667,263.667 50.667 C 263.392 50.667,263.167 50.592,263.167 50.500 C 263.167 50.395,262.000 50.333,260.000 50.333 C 258.000 50.333,256.833 50.395,256.833 50.500 M321.333 50.500 C 321.333 50.592,320.996 50.667,320.583 50.667 C 320.171 50.667,319.833 50.742,319.833 50.833 C 319.833 50.925,319.533 51.000,319.167 51.000 C 318.800 51.000,318.500 51.075,318.500 51.167 C 318.500 51.258,318.350 51.333,318.167 51.333 C 317.983 51.333,317.833 51.408,317.833 51.500 C 317.833 51.592,317.662 51.667,317.453 51.667 C 317.245 51.667,316.965 51.817,316.833 52.000 C 316.701 52.183,316.460 52.333,316.297 52.333 C 316.133 52.333,316.000 52.421,316.000 52.528 C 316.000 52.635,315.955 52.678,315.901 52.623 C 315.777 52.499,314.000 54.261,314.000 54.508 C 314.000 54.608,313.887 54.803,313.750 54.940 C 313.612 55.078,313.500 55.368,313.500 55.585 C 313.500 55.803,313.425 56.027,313.333 56.083 C 313.242 56.140,313.167 56.369,313.167 56.593 C 313.167 56.817,313.092 57.000,313.000 57.000 C 312.908 57.000,312.833 57.439,312.833 57.983 L 312.833 58.967 315.833 59.088 C 317.483 59.155,318.833 59.275,318.833 59.355 C 318.833 59.435,319.753 59.500,320.876 59.500 L 322.919 59.500 323.156 58.958 C 323.525 58.114,324.020 57.518,324.271 57.615 C 324.397 57.663,324.500 57.619,324.500 57.518 C 324.500 57.416,324.644 57.333,324.819 57.333 C 324.995 57.333,325.166 57.252,325.199 57.153 C 325.277 56.919,329.227 56.934,329.306 57.168 C 329.336 57.259,329.473 57.333,329.609 57.333 C 329.746 57.333,329.964 57.440,330.095 57.571 C 330.226 57.702,330.333 57.921,330.333 58.058 C 330.333 58.194,330.399 58.331,330.479 58.361 C 330.716 58.451,330.487 59.500,330.231 59.500 C 330.104 59.500,330.000 59.575,330.000 59.667 C 330.000 59.758,329.817 59.833,329.593 59.833 C 329.369 59.833,329.140 59.908,329.083 60.000 C 329.027 60.092,328.760 60.167,328.490 60.167 C 328.221 60.167,328.000 60.242,328.000 60.333 C 328.000 60.425,327.737 60.500,327.417 60.500 C 327.096 60.500,326.833 60.575,326.833 60.667 C 326.833 60.758,326.533 60.833,326.167 60.833 C 325.800 60.833,325.500 60.908,325.500 61.000 C 325.500 61.092,325.162 61.167,324.750 61.167 C 324.337 61.167,324.000 61.242,324.000 61.333 C 324.000 61.425,323.700 61.500,323.333 61.500 C 322.967 61.500,322.667 61.575,322.667 61.667 C 322.667 61.758,322.292 61.833,321.833 61.833 C 321.375 61.833,321.000 61.908,321.000 62.000 C 321.000 62.092,320.662 62.167,320.250 62.167 C 319.837 62.167,319.500 62.242,319.500 62.333 C 319.500 62.425,319.204 62.500,318.843 62.500 C 318.482 62.500,318.142 62.572,318.088 62.659 C 318.034 62.747,317.887 62.779,317.762 62.731 C 317.636 62.683,317.484 62.724,317.424 62.822 C 317.363 62.920,317.093 63.000,316.823 63.000 C 316.554 63.000,316.333 63.075,316.333 63.167 C 316.333 63.258,316.183 63.333,316.000 63.333 C 315.817 63.333,315.667 63.408,315.667 63.500 C 315.667 63.592,315.509 63.667,315.316 63.667 C 315.085 63.667,314.995 63.746,315.053 63.898 C 315.113 64.054,315.048 64.104,314.854 64.054 C 314.508 63.963,313.625 64.791,313.779 65.062 C 313.838 65.165,313.828 65.197,313.757 65.133 C 313.631 65.020,313.167 65.371,313.167 65.578 C 313.167 65.635,313.017 65.842,312.833 66.038 C 312.650 66.235,312.500 66.570,312.500 66.781 C 312.500 66.993,312.425 67.167,312.333 67.167 C 312.242 67.167,312.167 67.392,312.167 67.667 C 312.167 67.942,312.092 68.167,312.000 68.167 C 311.899 68.167,311.833 68.886,311.833 69.990 C 311.833 71.026,311.905 71.858,312.000 71.917 C 312.092 71.973,312.167 72.203,312.167 72.427 C 312.167 72.650,312.242 72.833,312.333 72.833 C 312.425 72.833,312.500 72.983,312.500 73.167 C 312.500 73.350,312.575 73.500,312.667 73.500 C 312.758 73.500,312.833 73.633,312.833 73.797 C 312.833 73.960,312.983 74.201,313.167 74.333 C 313.350 74.465,313.500 74.680,313.500 74.809 C 313.500 75.063,314.253 75.833,314.501 75.833 C 314.584 75.833,314.846 76.028,315.083 76.265 C 315.323 76.505,315.622 76.655,315.757 76.604 C 315.902 76.548,316.000 76.609,316.000 76.755 C 316.000 76.916,316.171 77.000,316.500 77.000 C 316.775 77.000,317.000 77.075,317.000 77.167 C 317.000 77.258,317.262 77.333,317.583 77.333 C 317.904 77.333,318.167 77.404,318.167 77.489 C 318.167 77.580,319.551 77.651,321.500 77.659 C 323.665 77.669,324.833 77.614,324.833 77.503 C 324.833 77.410,324.913 77.333,325.010 77.333 C 325.107 77.333,325.140 77.408,325.083 77.500 C 325.027 77.592,325.097 77.667,325.240 77.667 C 325.383 77.667,325.500 77.592,325.500 77.500 C 325.500 77.408,325.800 77.333,326.167 77.333 C 326.533 77.333,326.833 77.258,326.833 77.167 C 326.833 77.075,327.021 77.000,327.250 77.000 C 327.479 77.000,327.667 76.925,327.667 76.833 C 327.667 76.742,327.864 76.667,328.105 76.667 C 328.347 76.667,328.666 76.534,328.814 76.372 C 328.962 76.210,329.308 76.002,329.583 75.910 C 329.858 75.818,330.083 75.656,330.083 75.552 C 330.083 75.447,330.152 75.299,330.235 75.222 C 330.323 75.142,330.337 75.171,330.267 75.292 C 330.070 75.634,330.320 75.529,330.768 75.080 C 331.243 74.606,331.500 74.665,331.500 75.250 C 331.500 75.468,331.575 75.693,331.667 75.750 C 331.758 75.807,331.833 76.004,331.833 76.188 C 331.833 76.978,331.982 77.000,337.321 77.000 C 342.222 77.000,342.333 76.993,342.333 76.667 C 342.333 76.483,342.258 76.333,342.167 76.333 C 342.075 76.333,342.000 76.221,342.000 76.083 C 342.000 75.946,341.925 75.833,341.833 75.833 C 341.742 75.833,341.667 75.608,341.667 75.333 C 341.667 75.058,341.592 74.833,341.500 74.833 C 341.408 74.833,341.333 74.540,341.333 74.181 C 341.333 73.822,341.260 73.503,341.169 73.472 C 341.065 73.437,341.002 70.609,340.996 65.720 C 340.991 60.978,340.926 58.003,340.828 57.970 C 340.740 57.941,340.627 57.467,340.577 56.917 C 340.526 56.367,340.414 55.892,340.326 55.861 C 340.238 55.831,340.167 55.662,340.167 55.486 C 340.167 55.310,340.092 55.167,340.000 55.167 C 339.908 55.167,339.833 55.017,339.833 54.833 C 339.833 54.650,339.758 54.500,339.667 54.500 C 339.575 54.500,339.500 54.383,339.500 54.239 C 339.500 54.096,339.128 53.627,338.673 53.198 C 337.560 52.146,337.377 52.000,337.174 52.000 C 337.078 52.000,337.000 51.925,337.000 51.833 C 337.000 51.742,336.850 51.667,336.667 51.667 C 336.483 51.667,336.333 51.592,336.333 51.500 C 336.333 51.408,336.183 51.333,336.000 51.333 C 335.817 51.333,335.667 51.258,335.667 51.167 C 335.667 51.075,335.367 51.000,335.000 51.000 C 334.633 51.000,334.333 50.925,334.333 50.833 C 334.333 50.742,333.921 50.667,333.417 50.667 C 332.912 50.667,332.500 50.592,332.500 50.500 C 332.500 50.392,330.528 50.333,326.917 50.333 C 323.306 50.333,321.333 50.392,321.333 50.500 M360.167 50.500 C 360.167 50.592,359.942 50.667,359.667 50.667 C 359.392 50.667,359.167 50.742,359.167 50.833 C 359.167 50.925,359.058 51.000,358.924 51.000 C 358.578 51.000,357.886 51.738,357.973 52.016 C 358.013 52.145,357.989 52.197,357.920 52.133 C 357.785 52.008,357.333 52.381,357.333 52.618 C 357.333 52.696,357.183 52.868,357.000 53.000 C 356.817 53.132,356.667 53.416,356.667 53.630 C 356.667 53.847,356.593 53.974,356.500 53.917 C 356.408 53.860,356.333 53.181,356.333 52.407 L 356.333 51.000 351.417 51.000 L 346.500 51.000 346.500 64.000 L 346.500 77.000 351.913 77.000 L 357.326 77.000 357.390 70.458 C 357.425 66.860,357.498 63.692,357.552 63.417 C 357.606 63.142,357.702 62.523,357.765 62.042 C 357.828 61.560,357.957 61.167,358.051 61.167 C 358.145 61.167,358.174 61.119,358.116 61.060 C 357.828 60.772,358.949 59.383,359.819 58.949 C 360.433 58.642,362.482 58.553,362.758 58.820 C 363.086 59.136,364.500 59.230,364.500 58.936 C 364.500 58.788,364.575 58.667,364.667 58.667 C 364.758 58.667,364.833 58.517,364.833 58.333 C 364.833 58.150,364.917 58.000,365.019 58.000 C 365.130 58.000,365.172 57.825,365.123 57.570 C 365.071 57.297,365.125 57.108,365.271 57.052 C 365.397 57.004,365.500 56.822,365.500 56.649 C 365.500 56.475,365.575 56.333,365.667 56.333 C 365.758 56.333,365.833 56.183,365.833 56.000 C 365.833 55.817,365.890 55.666,365.958 55.665 C 366.127 55.664,366.500 54.839,366.500 54.467 C 366.500 54.302,366.575 54.167,366.667 54.167 C 366.758 54.167,366.833 54.017,366.833 53.833 C 366.833 53.650,366.908 53.500,367.000 53.500 C 367.092 53.500,367.167 53.365,367.167 53.200 C 367.167 53.035,367.247 52.820,367.345 52.721 C 367.721 52.346,367.457 51.421,366.958 51.364 C 366.706 51.335,366.500 51.241,366.500 51.156 C 366.500 51.070,366.350 51.000,366.167 51.000 C 365.983 51.000,365.833 50.925,365.833 50.833 C 365.833 50.742,365.608 50.667,365.333 50.667 C 365.058 50.667,364.833 50.592,364.833 50.500 C 364.833 50.397,363.944 50.333,362.500 50.333 C 361.056 50.333,360.167 50.397,360.167 50.500 M378.802 50.510 C 378.770 50.607,378.501 50.694,378.205 50.702 C 377.909 50.711,377.667 50.781,377.667 50.859 C 377.667 50.936,377.437 51.000,377.157 51.000 C 376.859 51.000,376.690 51.069,376.750 51.167 C 376.811 51.266,376.613 51.333,376.260 51.333 C 375.934 51.333,375.667 51.408,375.667 51.500 C 375.667 51.592,375.517 51.667,375.333 51.667 C 375.150 51.667,375.000 51.742,375.000 51.833 C 375.000 51.925,374.887 52.000,374.750 52.000 C 374.613 52.000,374.500 52.075,374.500 52.167 C 374.500 52.258,374.355 52.333,374.179 52.333 C 374.002 52.333,373.745 52.446,373.607 52.583 C 373.470 52.721,373.289 52.833,373.205 52.833 C 373.121 52.833,372.696 53.171,372.259 53.583 C 371.822 53.996,371.518 54.333,371.583 54.333 C 371.649 54.333,371.488 54.540,371.226 54.792 C 370.964 55.044,370.645 55.454,370.517 55.703 C 370.388 55.952,370.219 56.116,370.142 56.068 C 370.064 56.020,370.000 56.135,370.000 56.323 C 370.000 56.512,369.925 56.667,369.833 56.667 C 369.742 56.667,369.667 56.817,369.667 57.000 C 369.667 57.183,369.592 57.333,369.500 57.333 C 369.408 57.333,369.333 57.483,369.333 57.667 C 369.333 57.850,369.258 58.000,369.167 58.000 C 369.075 58.000,369.000 58.150,369.000 58.333 C 369.000 58.517,368.925 58.667,368.833 58.667 C 368.742 58.667,368.667 58.929,368.667 59.250 C 368.667 59.571,368.592 59.833,368.500 59.833 C 368.408 59.833,368.333 60.202,368.333 60.653 C 368.333 61.152,368.252 61.505,368.125 61.556 C 368.010 61.603,368.067 61.647,368.250 61.656 C 368.499 61.668,368.527 61.707,368.360 61.813 C 368.115 61.968,367.969 66.500,368.208 66.500 C 368.277 66.500,368.333 66.908,368.333 67.407 C 368.333 67.906,368.408 68.360,368.500 68.417 C 368.592 68.473,368.667 68.703,368.667 68.927 C 368.667 69.150,368.742 69.333,368.833 69.333 C 368.925 69.333,369.000 69.483,369.000 69.667 C 369.000 69.850,369.075 70.000,369.167 70.000 C 369.258 70.000,369.333 70.208,369.333 70.463 C 369.333 70.735,369.471 71.026,369.667 71.167 C 369.850 71.299,370.000 71.540,370.000 71.703 C 370.000 71.867,370.075 72.000,370.167 72.000 C 370.258 72.000,370.333 72.072,370.333 72.161 C 370.333 72.250,370.604 72.617,370.936 72.977 C 371.267 73.337,371.522 73.684,371.503 73.748 C 371.457 73.898,372.350 74.833,372.539 74.833 C 372.617 74.833,372.864 75.015,373.086 75.237 C 373.308 75.460,373.755 75.737,374.078 75.854 C 374.402 75.971,374.667 76.127,374.667 76.200 C 374.667 76.273,374.817 76.333,375.000 76.333 C 375.183 76.333,375.333 76.408,375.333 76.500 C 375.333 76.592,375.477 76.667,375.653 76.667 C 375.828 76.667,376.006 76.760,376.048 76.875 C 376.107 77.040,376.201 77.037,376.496 76.863 C 376.701 76.741,376.818 76.723,376.758 76.821 C 376.692 76.926,376.788 77.000,376.990 77.000 C 377.179 77.000,377.333 77.075,377.333 77.167 C 377.333 77.258,377.591 77.333,377.907 77.333 C 378.222 77.333,378.527 77.408,378.583 77.500 C 378.724 77.728,388.046 77.692,388.189 77.463 C 388.247 77.370,388.603 77.298,388.980 77.303 C 389.358 77.308,389.667 77.242,389.667 77.156 C 389.667 77.070,389.967 77.000,390.333 77.000 C 390.700 77.000,391.000 76.925,391.000 76.833 C 391.000 76.742,391.188 76.667,391.417 76.667 C 391.646 76.667,391.833 76.592,391.833 76.500 C 391.833 76.408,391.983 76.333,392.167 76.333 C 392.350 76.333,392.500 76.258,392.500 76.167 C 392.500 76.075,392.645 76.000,392.821 76.000 C 392.998 76.000,393.242 75.906,393.363 75.792 C 393.484 75.677,393.777 75.483,394.015 75.361 C 394.252 75.239,394.552 74.984,394.681 74.794 C 394.811 74.604,395.389 73.971,395.966 73.387 C 396.542 72.803,396.969 72.252,396.914 72.162 C 396.859 72.073,396.898 72.000,397.002 72.000 C 397.276 72.000,397.667 71.566,397.667 71.262 C 397.667 71.118,397.730 71.000,397.807 71.000 C 398.024 71.000,398.336 70.200,398.228 69.919 C 398.150 69.717,397.801 69.667,396.492 69.667 C 395.591 69.667,394.817 69.608,394.772 69.536 C 394.728 69.465,393.974 69.409,393.096 69.413 C 392.218 69.417,391.500 69.364,391.500 69.294 C 391.500 69.224,390.608 69.167,389.518 69.167 L 387.537 69.167 386.605 70.083 C 386.093 70.587,385.522 71.000,385.337 71.000 C 385.152 71.000,385.000 71.075,385.000 71.167 C 385.000 71.265,384.389 71.333,383.500 71.333 C 382.611 71.333,382.000 71.265,382.000 71.167 C 382.000 71.075,381.850 71.000,381.667 71.000 C 381.483 71.000,381.333 70.925,381.333 70.833 C 381.333 70.742,381.256 70.667,381.161 70.667 C 380.937 70.667,379.833 69.563,379.833 69.339 C 379.833 69.244,379.758 69.167,379.667 69.167 C 379.575 69.167,379.500 69.017,379.500 68.833 C 379.500 68.650,379.425 68.500,379.333 68.500 C 379.242 68.500,379.167 68.275,379.167 68.000 C 379.167 67.725,379.092 67.500,379.000 67.500 C 378.908 67.500,378.833 67.275,378.833 67.000 L 378.833 66.500 388.678 66.500 L 398.522 66.500 398.450 63.708 C 398.410 62.173,398.335 60.654,398.282 60.333 C 398.077 59.096,397.957 58.667,397.814 58.667 C 397.733 58.667,397.667 58.442,397.667 58.167 C 397.667 57.892,397.592 57.667,397.500 57.667 C 397.408 57.667,397.333 57.517,397.333 57.333 C 397.333 57.150,397.258 57.000,397.167 57.000 C 397.075 57.000,397.000 56.850,397.000 56.667 C 397.000 56.483,396.925 56.333,396.833 56.333 C 396.742 56.333,396.666 56.240,396.665 56.125 C 396.664 56.010,396.439 55.739,396.165 55.523 C 395.891 55.306,395.667 55.027,395.667 54.902 C 395.667 54.625,394.341 53.167,394.089 53.167 C 393.989 53.167,393.802 53.021,393.673 52.842 C 393.545 52.664,393.378 52.556,393.303 52.602 C 393.228 52.648,393.167 52.607,393.167 52.510 C 393.167 52.413,393.017 52.333,392.833 52.333 C 392.650 52.333,392.500 52.258,392.500 52.167 C 392.500 52.075,392.350 52.000,392.167 52.000 C 391.983 52.000,391.833 51.944,391.832 51.875 C 391.830 51.673,390.997 51.345,390.739 51.444 C 390.609 51.494,390.457 51.414,390.400 51.267 C 390.339 51.107,390.104 51.000,389.816 51.000 C 389.550 51.000,389.333 50.925,389.333 50.833 C 389.333 50.742,389.000 50.667,388.593 50.667 C 388.186 50.667,387.807 50.592,387.750 50.500 C 387.604 50.264,378.881 50.274,378.802 50.510 M223.500 56.833 C 223.500 56.925,223.650 57.000,223.833 57.000 C 224.017 57.000,224.167 57.075,224.167 57.167 C 224.167 57.258,224.283 57.333,224.424 57.333 C 224.961 57.333,226.000 58.756,226.000 59.492 C 226.000 59.680,226.075 59.833,226.167 59.833 C 226.258 59.833,226.333 60.133,226.333 60.500 L 226.333 61.167 221.862 61.167 L 217.391 61.167 217.464 60.667 C 217.505 60.392,217.604 60.167,217.686 60.167 C 217.767 60.167,217.833 59.942,217.833 59.667 C 217.833 59.392,217.908 59.167,218.000 59.167 C 218.092 59.167,218.167 59.089,218.167 58.993 C 218.167 58.531,219.757 57.000,220.237 57.000 C 220.473 57.000,220.667 56.925,220.667 56.833 C 220.667 56.735,221.250 56.667,222.083 56.667 C 222.917 56.667,223.500 56.735,223.500 56.833 M385.000 56.833 C 385.000 56.925,385.154 57.000,385.343 57.000 C 385.532 57.000,385.640 57.075,385.583 57.167 C 385.527 57.258,385.600 57.333,385.746 57.333 C 386.085 57.333,387.167 58.408,387.167 58.744 C 387.167 58.885,387.242 59.000,387.333 59.000 C 387.425 59.000,387.500 59.181,387.500 59.403 C 387.500 59.624,387.568 59.831,387.651 59.861 C 387.803 59.917,387.888 60.341,387.853 60.875 C 387.835 61.145,387.501 61.167,383.333 61.167 L 378.833 61.167 378.833 60.667 C 378.833 60.392,378.908 60.167,379.000 60.167 C 379.092 60.167,379.167 59.942,379.167 59.667 C 379.167 59.392,379.242 59.167,379.333 59.167 C 379.425 59.167,379.500 59.086,379.500 58.987 C 379.500 58.888,379.805 58.514,380.178 58.156 C 380.551 57.798,380.809 57.429,380.753 57.338 C 380.693 57.240,380.758 57.212,380.908 57.270 C 381.050 57.324,381.167 57.286,381.167 57.184 C 381.167 57.083,381.354 57.000,381.583 57.000 C 381.813 57.000,382.000 56.925,382.000 56.833 C 382.000 56.735,382.611 56.667,383.500 56.667 C 384.389 56.667,385.000 56.735,385.000 56.833 M190.500 58.519 C 190.500 58.626,190.671 58.673,190.901 58.629 C 191.176 58.576,191.278 58.618,191.223 58.761 C 191.179 58.876,191.299 59.020,191.490 59.080 C 191.682 59.141,191.804 59.247,191.761 59.315 C 191.719 59.383,191.831 59.545,192.009 59.673 C 192.187 59.802,192.333 60.040,192.333 60.203 C 192.333 60.367,192.408 60.500,192.500 60.500 C 192.592 60.500,192.667 60.725,192.667 61.000 C 192.667 61.275,192.742 61.500,192.833 61.500 C 192.937 61.500,193.000 62.444,193.000 64.000 C 193.000 65.725,192.943 66.500,192.814 66.500 C 192.703 66.500,192.658 66.700,192.702 67.000 C 192.752 67.341,192.705 67.500,192.554 67.500 C 192.433 67.500,192.333 67.616,192.333 67.757 C 192.333 68.018,192.205 68.208,191.552 68.907 C 191.351 69.122,191.220 69.331,191.260 69.371 C 191.300 69.411,191.240 69.455,191.125 69.469 C 188.779 69.740,188.452 69.750,187.993 69.557 C 187.722 69.443,187.500 69.385,187.500 69.429 C 187.500 69.473,187.162 69.171,186.750 68.759 C 186.338 68.346,186.000 67.894,186.000 67.754 C 186.000 67.614,185.925 67.500,185.833 67.500 C 185.742 67.500,185.667 67.271,185.667 66.990 C 185.667 66.693,185.597 66.523,185.500 66.583 C 185.397 66.647,185.333 66.363,185.333 65.843 C 185.333 65.379,185.258 65.000,185.167 65.000 C 185.074 65.000,185.000 64.556,185.000 64.000 C 185.000 63.444,185.074 63.000,185.167 63.000 C 185.258 63.000,185.333 62.663,185.333 62.250 C 185.333 61.837,185.408 61.500,185.500 61.500 C 185.592 61.500,185.667 61.233,185.667 60.907 C 185.667 60.554,185.734 60.355,185.833 60.417 C 185.925 60.473,186.000 60.395,186.000 60.243 C 186.000 59.923,186.841 59.113,187.759 58.551 C 188.182 58.292,190.500 58.265,190.500 58.519 M330.669 67.582 C 330.753 67.530,330.693 67.846,330.536 68.285 C 330.379 68.724,330.194 69.108,330.125 69.139 C 330.056 69.169,330.000 69.267,330.000 69.355 C 330.000 69.594,329.215 70.333,328.961 70.333 C 328.840 70.333,328.632 70.483,328.500 70.667 C 328.368 70.850,328.126 71.000,327.963 71.000 C 327.800 71.000,327.667 71.075,327.667 71.167 C 327.667 71.258,327.560 71.333,327.431 71.333 C 327.301 71.333,327.169 71.405,327.139 71.493 C 327.057 71.728,323.946 71.755,323.868 71.521 C 323.834 71.418,323.731 71.333,323.641 71.333 C 323.328 71.333,322.667 70.383,322.667 69.933 C 322.667 69.802,322.573 69.651,322.458 69.597 C 322.292 69.519,322.292 69.481,322.458 69.403 C 322.573 69.349,322.667 69.159,322.667 68.981 C 322.667 68.643,323.692 67.500,323.994 67.500 C 324.089 67.500,324.167 67.425,324.167 67.333 C 324.167 67.242,324.392 67.167,324.667 67.167 C 324.942 67.167,325.167 67.092,325.167 67.000 C 325.167 66.908,325.385 66.833,325.653 66.833 C 325.920 66.833,326.167 66.749,326.201 66.646 C 326.236 66.543,326.467 66.458,326.715 66.458 C 326.964 66.458,327.167 66.393,327.167 66.313 C 327.167 66.232,327.429 66.167,327.750 66.167 C 328.071 66.167,328.333 66.102,328.333 66.023 C 328.333 65.944,328.802 65.813,329.375 65.732 L 330.417 65.583 330.466 66.630 C 330.494 67.213,330.583 67.635,330.669 67.582 " stroke="none" fill="#545454" fill-rule="evenodd"></path><path id="path1" d="M55.083 0.188 C 53.708 0.256,51.946 0.393,51.167 0.493 C 50.387 0.592,49.356 0.716,48.875 0.769 C 48.394 0.821,48.000 0.932,48.000 1.015 C 48.000 1.099,47.629 1.167,47.177 1.167 C 46.724 1.167,46.307 1.242,46.250 1.333 C 46.193 1.425,45.889 1.500,45.573 1.500 C 45.258 1.500,45.000 1.583,45.000 1.684 C 45.000 1.786,44.887 1.826,44.749 1.773 C 44.610 1.719,44.308 1.748,44.077 1.836 C 43.846 1.924,43.434 2.012,43.162 2.033 C 42.889 2.054,42.667 2.121,42.667 2.183 C 42.667 2.290,42.239 2.402,41.042 2.609 C 40.744 2.661,40.500 2.770,40.500 2.852 C 40.500 2.933,40.275 3.000,40.000 3.000 C 39.725 3.000,39.500 3.075,39.500 3.167 C 39.500 3.258,39.313 3.333,39.083 3.333 C 38.854 3.333,38.667 3.408,38.667 3.500 C 38.667 3.592,38.494 3.667,38.283 3.667 C 38.073 3.667,37.825 3.741,37.734 3.832 C 37.643 3.923,37.366 4.015,37.118 4.035 C 36.870 4.056,36.667 4.131,36.667 4.203 C 36.667 4.275,36.554 4.333,36.417 4.333 C 36.279 4.333,36.167 4.408,36.167 4.500 C 36.167 4.592,36.017 4.667,35.833 4.667 C 35.650 4.667,35.500 4.725,35.500 4.797 C 35.500 4.869,35.144 5.028,34.708 5.151 C 34.273 5.274,33.588 5.553,33.187 5.771 C 32.786 5.989,32.355 6.167,32.229 6.167 C 32.103 6.167,32.000 6.223,32.000 6.293 C 32.000 6.426,30.962 6.931,30.852 6.852 C 30.816 6.826,30.741 6.868,30.685 6.946 C 30.629 7.023,30.294 7.236,29.940 7.418 C 29.586 7.601,29.259 7.844,29.214 7.958 C 29.168 8.073,28.995 8.167,28.829 8.167 C 28.664 8.167,28.503 8.223,28.472 8.292 C 28.397 8.462,27.280 9.019,27.128 8.962 C 27.061 8.937,26.888 9.085,26.744 9.292 C 26.599 9.498,26.389 9.667,26.277 9.667 C 26.165 9.667,25.965 9.817,25.833 10.000 C 25.701 10.183,25.476 10.333,25.333 10.333 C 25.190 10.333,24.965 10.483,24.833 10.667 C 24.701 10.850,24.508 11.000,24.405 11.000 C 24.301 11.000,23.987 11.219,23.706 11.487 C 23.426 11.755,23.167 11.945,23.131 11.908 C 23.094 11.872,22.820 12.065,22.522 12.338 C 22.224 12.610,21.859 12.833,21.712 12.833 C 21.565 12.833,21.488 12.877,21.541 12.930 C 21.594 12.983,21.326 13.302,20.944 13.638 C 20.562 13.975,20.225 14.306,20.194 14.375 C 20.164 14.444,19.991 14.500,19.810 14.500 C 19.629 14.500,19.520 14.564,19.568 14.642 C 19.616 14.719,19.473 14.881,19.250 15.000 C 19.027 15.119,18.876 15.267,18.913 15.328 C 18.951 15.389,18.825 15.547,18.632 15.678 C 18.171 15.992,16.360 17.792,15.839 18.453 C 15.613 18.740,15.369 18.939,15.297 18.894 C 15.225 18.850,15.167 18.898,15.167 19.002 C 15.167 19.256,14.732 19.677,14.603 19.548 C 14.546 19.491,14.500 19.574,14.500 19.732 C 14.500 19.890,14.425 19.973,14.333 19.917 C 14.242 19.860,14.167 19.930,14.167 20.073 C 14.167 20.216,13.867 20.651,13.500 21.040 C 13.133 21.430,12.833 21.809,12.833 21.884 C 12.833 21.959,12.747 21.966,12.641 21.901 C 12.527 21.830,12.494 21.855,12.559 21.960 C 12.619 22.058,12.443 22.364,12.168 22.640 C 11.892 22.915,11.667 23.243,11.667 23.367 C 11.667 23.491,11.517 23.701,11.333 23.833 C 11.150 23.965,11.000 24.158,11.000 24.262 C 11.000 24.366,10.775 24.686,10.500 24.974 C 10.225 25.262,10.000 25.572,10.000 25.664 C 10.000 25.755,9.850 25.924,9.667 26.039 C 9.483 26.153,9.333 26.379,9.333 26.540 C 9.333 26.701,9.202 26.966,9.042 27.128 C 8.881 27.290,8.600 27.739,8.417 28.126 C 8.233 28.513,8.041 28.830,7.989 28.831 C 7.938 28.832,7.793 29.096,7.667 29.417 C 7.541 29.738,7.377 30.000,7.302 30.000 C 7.228 30.000,7.167 30.098,7.167 30.219 C 7.167 30.339,7.017 30.598,6.833 30.795 C 6.650 30.992,6.500 31.268,6.500 31.410 C 6.500 31.551,6.444 31.667,6.375 31.668 C 6.249 31.669,5.833 32.457,5.833 32.695 C 5.833 32.766,5.571 33.364,5.250 34.023 C 4.929 34.682,4.667 35.322,4.667 35.444 C 4.667 35.567,4.608 35.667,4.536 35.667 C 4.465 35.667,4.302 36.023,4.174 36.458 C 4.047 36.894,3.806 37.496,3.638 37.797 C 3.470 38.097,3.333 38.487,3.333 38.662 C 3.333 38.837,3.258 39.027,3.167 39.083 C 3.075 39.140,3.000 39.332,3.000 39.510 C 3.000 39.688,2.925 39.833,2.833 39.833 C 2.742 39.833,2.667 40.054,2.667 40.323 C 2.667 40.593,2.592 40.860,2.500 40.917 C 2.408 40.973,2.333 41.245,2.333 41.520 C 2.333 41.795,2.269 41.980,2.189 41.931 C 2.110 41.882,2.046 42.046,2.047 42.296 C 2.048 42.546,1.963 42.963,1.857 43.222 C 1.751 43.482,1.707 43.763,1.759 43.847 C 1.811 43.931,1.781 44.000,1.693 44.000 C 1.605 44.000,1.489 44.338,1.433 44.750 C 1.378 45.163,1.288 45.838,1.233 46.250 C 1.178 46.662,1.066 47.000,0.983 47.000 C 0.901 47.000,0.833 47.333,0.833 47.740 C 0.833 48.147,0.758 48.527,0.667 48.583 C 0.575 48.640,0.500 49.099,0.500 49.603 C 0.500 50.107,0.436 50.480,0.357 50.431 C 0.007 50.215,-0.054 67.179,0.294 67.528 C 0.408 67.641,0.500 68.126,0.500 68.607 C 0.500 69.087,0.575 69.527,0.667 69.583 C 0.758 69.640,0.833 70.015,0.833 70.417 C 0.833 70.818,0.908 71.193,1.000 71.250 C 1.092 71.307,1.167 71.644,1.167 72.000 C 1.167 72.356,1.242 72.693,1.333 72.750 C 1.425 72.807,1.500 73.149,1.500 73.510 C 1.500 73.871,1.579 74.167,1.677 74.167 C 1.774 74.167,1.815 74.229,1.767 74.305 C 1.720 74.381,1.783 74.827,1.907 75.295 C 2.030 75.763,2.083 76.201,2.024 76.267 C 1.965 76.333,2.010 76.333,2.125 76.267 C 2.261 76.188,2.341 76.266,2.354 76.490 C 2.381 76.933,2.423 77.073,2.847 78.133 C 2.931 78.343,3.000 78.662,3.000 78.841 C 3.000 79.020,3.075 79.167,3.167 79.167 C 3.258 79.167,3.333 79.392,3.333 79.667 C 3.333 79.942,3.390 80.167,3.458 80.168 C 3.598 80.169,4.000 80.968,4.000 81.246 C 4.000 81.344,4.223 81.873,4.495 82.421 C 4.767 82.969,4.992 83.498,4.995 83.597 C 4.998 83.696,5.303 84.353,5.673 85.056 C 6.043 85.758,6.287 86.334,6.215 86.336 C 6.143 86.337,6.159 86.394,6.252 86.461 C 6.345 86.528,6.601 86.940,6.820 87.375 C 7.040 87.810,7.282 88.167,7.360 88.167 C 7.437 88.167,7.500 88.317,7.500 88.500 C 7.500 88.683,7.557 88.833,7.627 88.833 C 7.766 88.833,7.894 89.044,8.452 90.184 C 8.655 90.598,8.974 91.076,9.161 91.245 C 9.347 91.413,9.500 91.620,9.500 91.704 C 9.500 91.853,10.216 92.871,10.625 93.304 C 10.740 93.425,10.833 93.590,10.833 93.671 C 10.833 93.752,11.021 94.006,11.250 94.235 C 11.479 94.464,11.667 94.696,11.667 94.749 C 11.667 94.861,11.914 95.181,12.458 95.773 C 12.665 95.998,12.833 96.237,12.833 96.304 C 12.833 96.372,13.208 96.820,13.667 97.301 C 14.125 97.781,14.500 98.231,14.500 98.300 C 14.500 98.370,14.650 98.535,14.833 98.667 C 15.017 98.799,15.167 99.015,15.167 99.148 C 15.167 99.280,15.210 99.346,15.263 99.293 C 15.316 99.240,15.581 99.434,15.852 99.723 C 16.958 100.903,18.357 102.279,18.931 102.750 C 19.266 103.025,19.876 103.569,20.285 103.958 C 20.695 104.348,21.060 104.667,21.097 104.667 C 21.193 104.667,21.823 105.179,22.378 105.708 C 22.643 105.960,22.929 106.167,23.014 106.167 C 23.100 106.167,23.405 106.392,23.693 106.667 C 23.981 106.942,24.301 107.167,24.405 107.167 C 24.508 107.167,24.701 107.317,24.833 107.500 C 24.965 107.683,25.179 107.833,25.309 107.833 C 25.438 107.833,25.666 107.970,25.814 108.137 C 25.962 108.303,26.196 108.491,26.333 108.554 C 26.471 108.617,26.883 108.859,27.250 109.092 C 27.617 109.324,28.048 109.557,28.208 109.610 C 28.369 109.662,28.500 109.772,28.500 109.853 C 28.500 109.934,28.613 110.000,28.750 110.000 C 28.887 110.000,29.000 110.075,29.000 110.167 C 29.000 110.258,29.146 110.333,29.324 110.333 C 29.502 110.333,29.746 110.465,29.866 110.625 C 29.985 110.785,30.195 110.941,30.332 110.972 C 30.468 111.002,30.627 111.102,30.684 111.194 C 30.741 111.286,30.838 111.348,30.901 111.330 C 31.102 111.275,32.000 111.702,32.000 111.854 C 32.000 111.934,32.150 112.000,32.333 112.000 C 32.517 112.000,32.667 112.075,32.667 112.167 C 32.667 112.258,32.763 112.333,32.881 112.333 C 33.000 112.333,33.389 112.483,33.747 112.665 C 34.105 112.848,34.646 113.044,34.949 113.100 C 35.252 113.157,35.500 113.270,35.500 113.352 C 35.500 113.433,35.654 113.500,35.843 113.500 C 36.032 113.500,36.140 113.575,36.083 113.667 C 36.023 113.764,36.193 113.833,36.490 113.833 C 36.771 113.833,37.000 113.908,37.000 114.000 C 37.000 114.092,37.146 114.167,37.323 114.167 C 37.501 114.167,37.693 114.242,37.750 114.333 C 37.807 114.425,38.036 114.500,38.260 114.500 C 38.484 114.500,38.667 114.575,38.667 114.667 C 38.667 114.758,38.850 114.833,39.073 114.833 C 39.297 114.833,39.527 114.908,39.583 115.000 C 39.640 115.092,39.865 115.167,40.083 115.167 C 40.302 115.167,40.527 115.242,40.583 115.333 C 40.640 115.425,40.865 115.500,41.083 115.500 C 41.302 115.500,41.521 115.566,41.571 115.647 C 41.622 115.729,41.870 115.834,42.123 115.882 C 42.376 115.929,43.183 116.125,43.917 116.316 C 44.650 116.506,45.531 116.664,45.875 116.665 C 46.219 116.666,46.500 116.742,46.500 116.833 C 46.500 116.925,46.875 117.000,47.333 117.000 C 47.792 117.000,48.167 117.075,48.167 117.167 C 48.167 117.258,48.575 117.333,49.073 117.333 C 49.572 117.333,50.027 117.408,50.083 117.500 C 50.140 117.592,50.744 117.667,51.427 117.667 C 52.160 117.667,52.667 117.736,52.667 117.837 C 52.667 117.950,54.765 118.003,58.917 117.996 C 62.765 117.989,65.167 117.924,65.167 117.826 C 65.167 117.738,65.768 117.667,66.510 117.667 C 67.363 117.667,67.815 117.606,67.750 117.500 C 67.686 117.396,68.029 117.333,68.667 117.333 C 69.304 117.333,69.648 117.271,69.583 117.167 C 69.520 117.064,69.804 117.000,70.323 117.000 C 70.787 117.000,71.167 116.925,71.167 116.833 C 71.167 116.742,71.462 116.667,71.823 116.667 C 72.185 116.667,72.527 116.590,72.585 116.497 C 72.643 116.404,72.768 116.376,72.863 116.435 C 72.958 116.494,73.309 116.463,73.643 116.368 C 73.977 116.272,74.587 116.106,75.000 115.998 C 75.412 115.889,75.880 115.733,76.039 115.650 C 76.199 115.568,76.475 115.500,76.655 115.500 C 76.834 115.500,77.027 115.425,77.083 115.333 C 77.140 115.242,77.369 115.167,77.593 115.167 C 77.817 115.167,78.000 115.092,78.000 115.000 C 78.000 114.908,78.151 114.833,78.336 114.833 C 78.660 114.833,78.820 114.774,79.623 114.359 C 79.828 114.253,80.142 114.167,80.321 114.167 C 80.500 114.167,80.693 114.092,80.750 114.000 C 80.807 113.908,80.999 113.833,81.177 113.833 C 81.354 113.833,81.500 113.758,81.500 113.667 C 81.500 113.575,81.688 113.500,81.917 113.500 C 82.146 113.500,82.333 113.425,82.333 113.333 C 82.333 113.242,82.449 113.167,82.591 113.167 C 82.905 113.167,86.061 111.655,86.139 111.467 C 86.169 111.394,86.338 111.333,86.514 111.333 C 86.690 111.333,86.833 111.272,86.833 111.198 C 86.833 111.123,87.096 110.959,87.417 110.833 C 87.737 110.707,88.000 110.543,88.000 110.469 C 88.000 110.394,88.112 110.333,88.250 110.333 C 88.388 110.333,88.500 110.258,88.500 110.167 C 88.500 110.075,88.650 110.000,88.833 110.000 C 89.017 110.000,89.167 109.934,89.167 109.853 C 89.167 109.772,89.298 109.661,89.458 109.608 C 89.779 109.500,89.873 109.442,91.619 108.292 C 92.281 107.857,92.869 107.500,92.927 107.500 C 92.985 107.500,93.233 107.286,93.477 107.025 C 93.721 106.763,94.145 106.432,94.419 106.289 C 94.693 106.146,95.082 105.872,95.285 105.681 C 95.487 105.490,95.699 105.333,95.756 105.333 C 95.813 105.333,96.148 105.033,96.500 104.667 C 96.852 104.300,97.219 104.000,97.314 104.000 C 97.410 104.000,97.569 103.850,97.667 103.667 C 97.765 103.483,97.926 103.333,98.024 103.333 C 98.249 103.333,103.000 98.529,103.000 98.301 C 103.000 98.209,103.225 97.924,103.500 97.667 C 104.488 96.744,103.969 94.500,102.768 94.500 C 102.540 94.500,102.307 94.425,102.250 94.333 C 102.193 94.242,101.551 94.167,100.823 94.167 C 100.052 94.167,99.500 94.097,99.500 94.000 C 99.500 93.908,99.167 93.833,98.760 93.833 C 98.353 93.833,97.973 93.758,97.917 93.667 C 97.860 93.575,97.556 93.500,97.240 93.500 C 96.925 93.500,96.667 93.433,96.667 93.351 C 96.667 93.269,96.348 93.157,95.958 93.102 C 94.877 92.950,94.683 92.905,94.559 92.781 C 94.496 92.718,94.232 92.667,93.972 92.667 C 93.712 92.667,93.500 92.592,93.500 92.500 C 93.500 92.408,93.365 92.333,93.200 92.333 C 92.827 92.333,92.003 91.961,92.001 91.792 C 92.001 91.723,91.817 91.667,91.593 91.667 C 91.369 91.667,91.140 91.592,91.083 91.500 C 91.027 91.408,90.835 91.333,90.657 91.333 C 90.479 91.333,90.333 91.258,90.333 91.167 C 90.333 91.075,90.183 91.000,90.000 91.000 C 89.817 91.000,89.667 90.925,89.667 90.833 C 89.667 90.742,89.517 90.667,89.333 90.667 C 89.150 90.667,89.000 90.592,89.000 90.500 C 89.000 90.408,88.883 90.333,88.740 90.333 C 88.597 90.333,88.517 90.274,88.562 90.201 C 88.607 90.129,88.487 90.057,88.295 90.043 C 88.103 90.029,87.902 89.948,87.848 89.864 C 87.794 89.780,87.563 89.653,87.333 89.582 C 87.104 89.511,86.795 89.313,86.647 89.143 C 86.499 88.973,86.293 88.833,86.190 88.833 C 86.087 88.833,85.909 88.683,85.795 88.500 C 85.680 88.317,85.459 88.167,85.303 88.167 C 85.147 88.167,84.973 88.092,84.917 88.000 C 84.798 87.808,82.836 87.769,82.829 87.958 C 82.826 88.027,82.526 88.267,82.162 88.492 C 81.798 88.717,81.500 88.960,81.500 89.034 C 81.500 89.107,81.384 89.167,81.243 89.167 C 80.980 89.167,80.921 89.206,80.116 89.919 C 79.860 90.147,79.578 90.333,79.491 90.333 C 79.201 90.333,79.086 90.399,78.698 90.787 C 78.485 90.999,78.230 91.123,78.130 91.061 C 78.021 90.994,77.996 91.026,78.067 91.141 C 78.138 91.255,78.080 91.333,77.927 91.333 C 77.784 91.333,77.666 91.390,77.665 91.458 C 77.665 91.527,77.496 91.669,77.290 91.773 C 77.085 91.878,76.451 92.198,75.883 92.485 C 75.314 92.772,74.808 93.073,74.758 93.154 C 74.707 93.235,74.516 93.263,74.333 93.215 C 74.147 93.166,74.000 93.210,74.000 93.314 C 74.000 93.416,73.850 93.500,73.667 93.500 C 73.483 93.500,73.333 93.575,73.333 93.667 C 73.333 93.758,73.183 93.833,73.000 93.833 C 72.817 93.833,72.667 93.908,72.667 94.000 C 72.667 94.092,72.516 94.167,72.331 94.167 C 72.146 94.167,71.846 94.242,71.664 94.333 C 71.482 94.425,71.184 94.575,71.002 94.667 C 70.820 94.758,70.525 94.833,70.345 94.833 C 70.166 94.833,69.973 94.908,69.917 95.000 C 69.860 95.092,69.593 95.167,69.323 95.167 C 69.054 95.167,68.833 95.242,68.833 95.333 C 68.833 95.425,68.575 95.500,68.260 95.500 C 67.944 95.500,67.640 95.575,67.583 95.667 C 67.527 95.758,67.237 95.833,66.940 95.833 C 66.643 95.833,66.329 95.902,66.242 95.985 C 66.155 96.069,65.633 96.177,65.083 96.226 C 64.533 96.275,63.521 96.369,62.833 96.435 C 61.175 96.595,56.897 96.599,55.333 96.442 C 54.646 96.373,53.615 96.274,53.042 96.222 C 52.469 96.169,52.000 96.061,52.000 95.980 C 52.000 95.899,51.625 95.833,51.167 95.833 C 50.708 95.833,50.333 95.758,50.333 95.667 C 50.333 95.575,50.075 95.500,49.760 95.500 C 49.444 95.500,49.140 95.425,49.083 95.333 C 49.027 95.242,48.727 95.167,48.417 95.167 C 48.107 95.167,47.807 95.092,47.750 95.000 C 47.693 94.908,47.464 94.833,47.240 94.833 C 47.016 94.833,46.833 94.758,46.833 94.667 C 46.833 94.575,46.608 94.500,46.333 94.500 C 46.058 94.500,45.833 94.425,45.833 94.333 C 45.833 94.242,45.682 94.167,45.498 94.167 C 45.313 94.167,45.032 94.096,44.873 94.010 C 44.523 93.821,43.211 93.241,42.750 93.070 C 42.567 93.003,42.323 92.963,42.208 92.981 C 42.094 92.999,42.000 92.936,42.000 92.841 C 42.000 92.745,41.887 92.667,41.750 92.667 C 41.612 92.667,41.500 92.592,41.500 92.500 C 41.500 92.408,41.350 92.333,41.167 92.333 C 40.983 92.333,40.833 92.258,40.833 92.167 C 40.833 92.075,40.721 92.000,40.583 92.000 C 40.446 92.000,40.333 91.943,40.333 91.874 C 40.333 91.805,40.090 91.640,39.792 91.508 C 39.494 91.376,39.105 91.133,38.927 90.968 C 38.749 90.802,38.399 90.576,38.147 90.465 C 37.896 90.354,37.727 90.204,37.772 90.131 C 37.816 90.059,37.736 90.000,37.593 90.000 C 37.450 90.000,37.333 89.926,37.333 89.837 C 37.333 89.747,37.132 89.622,36.885 89.561 C 36.639 89.499,36.197 89.216,35.903 88.932 C 35.609 88.649,34.938 88.042,34.411 87.583 C 33.139 86.476,31.933 85.273,30.917 84.096 C 30.458 83.565,29.840 82.879,29.542 82.571 C 29.244 82.263,28.999 81.952,28.998 81.881 C 28.997 81.809,28.735 81.421,28.415 81.018 C 28.095 80.616,27.833 80.217,27.833 80.131 C 27.833 80.046,27.740 79.877,27.625 79.757 C 27.179 79.287,26.833 78.824,26.833 78.696 C 26.833 78.623,26.702 78.417,26.542 78.240 C 26.381 78.062,26.138 77.692,26.000 77.417 C 25.863 77.142,25.713 76.879,25.667 76.833 C 25.502 76.669,25.000 75.484,25.000 75.258 C 25.000 75.131,24.922 75.002,24.826 74.970 C 24.730 74.938,24.640 74.749,24.625 74.551 C 24.610 74.352,24.538 74.226,24.465 74.271 C 24.393 74.316,24.333 74.199,24.333 74.010 C 24.333 73.821,24.258 73.667,24.167 73.667 C 24.075 73.667,24.000 73.479,24.000 73.250 C 24.000 73.021,23.925 72.833,23.833 72.833 C 23.742 72.833,23.667 72.688,23.667 72.510 C 23.667 72.332,23.592 72.140,23.500 72.083 C 23.408 72.027,23.333 71.802,23.333 71.583 C 23.333 71.365,23.258 71.140,23.167 71.083 C 23.075 71.027,23.000 70.797,23.000 70.573 C 23.000 70.350,22.925 70.167,22.833 70.167 C 22.742 70.167,22.667 69.942,22.667 69.667 C 22.667 69.392,22.592 69.167,22.500 69.167 C 22.408 69.167,22.333 68.909,22.333 68.593 C 22.333 68.278,22.268 67.979,22.189 67.930 C 22.057 67.849,21.732 65.277,21.811 64.941 C 21.830 64.862,21.770 64.708,21.678 64.597 C 21.586 64.486,21.500 63.669,21.487 62.781 C 21.473 61.862,21.393 61.167,21.300 61.167 C 21.147 61.167,21.168 60.276,21.424 55.917 C 21.473 55.092,21.559 54.304,21.615 54.167 C 21.744 53.854,21.783 53.569,21.919 51.959 C 21.979 51.250,22.097 50.626,22.181 50.575 C 22.265 50.523,22.333 50.222,22.333 49.907 C 22.333 49.591,22.393 49.333,22.466 49.333 C 22.539 49.333,22.617 49.052,22.640 48.708 C 22.663 48.365,22.753 48.058,22.841 48.028 C 22.928 47.997,23.000 47.791,23.000 47.569 C 23.000 47.348,23.075 47.167,23.167 47.167 C 23.258 47.167,23.333 46.942,23.333 46.667 C 23.333 46.392,23.408 46.167,23.500 46.167 C 23.592 46.167,23.667 46.021,23.667 45.843 C 23.667 45.665,23.742 45.473,23.833 45.417 C 23.925 45.360,24.000 45.131,24.000 44.907 C 24.000 44.683,24.066 44.500,24.147 44.500 C 24.271 44.500,24.477 44.069,24.561 43.633 C 24.573 43.569,24.677 43.423,24.792 43.308 C 24.906 43.194,25.000 42.933,25.000 42.729 C 25.000 42.524,25.112 42.245,25.250 42.107 C 25.387 41.970,25.500 41.739,25.500 41.595 C 25.500 41.451,25.557 41.333,25.626 41.333 C 25.695 41.333,25.860 41.090,25.992 40.792 C 26.124 40.494,26.367 40.105,26.532 39.927 C 26.698 39.749,26.833 39.540,26.833 39.462 C 26.833 39.383,26.983 39.158,27.167 38.962 C 27.350 38.765,27.500 38.505,27.500 38.385 C 27.500 38.265,27.575 38.167,27.667 38.167 C 27.758 38.167,27.833 38.086,27.833 37.988 C 27.833 37.890,27.927 37.705,28.042 37.577 C 28.525 37.038,28.674 36.833,28.583 36.833 C 28.469 36.833,28.719 36.522,29.458 35.746 C 29.756 35.434,30.000 35.128,30.000 35.067 C 30.000 35.005,30.371 34.590,30.824 34.144 C 31.277 33.698,31.607 33.333,31.556 33.333 C 31.430 33.333,33.800 31.073,34.403 30.617 C 34.670 30.415,35.195 29.966,35.569 29.620 C 35.944 29.273,37.000 28.505,37.917 27.913 C 38.833 27.321,39.674 26.761,39.785 26.668 C 39.895 26.576,40.102 26.500,40.243 26.500 C 40.384 26.500,40.500 26.425,40.500 26.333 C 40.500 26.242,40.612 26.167,40.750 26.167 C 40.887 26.167,41.000 26.092,41.000 26.000 C 41.000 25.908,41.192 25.833,41.427 25.833 C 41.668 25.833,41.808 25.761,41.750 25.667 C 41.693 25.575,41.765 25.500,41.909 25.500 C 42.208 25.500,42.857 25.165,43.039 24.917 C 43.106 24.825,43.163 24.808,43.164 24.878 C 43.166 24.949,43.464 24.855,43.827 24.670 C 44.190 24.485,44.640 24.333,44.827 24.333 C 45.014 24.333,45.167 24.258,45.167 24.167 C 45.167 24.075,45.317 24.000,45.500 24.000 C 45.683 24.000,45.833 23.925,45.833 23.833 C 45.833 23.742,46.058 23.667,46.333 23.667 C 46.608 23.667,46.833 23.592,46.833 23.500 C 46.833 23.408,47.058 23.333,47.333 23.333 C 47.608 23.333,47.833 23.258,47.833 23.167 C 47.833 23.075,48.096 23.000,48.417 23.000 C 48.737 23.000,49.000 22.925,49.000 22.833 C 49.000 22.742,49.225 22.667,49.500 22.667 C 49.775 22.667,50.000 22.592,50.000 22.500 C 50.000 22.408,50.301 22.333,50.669 22.333 C 51.037 22.333,51.468 22.265,51.627 22.181 C 51.974 21.999,55.648 21.636,55.855 21.763 C 55.935 21.813,56.000 21.774,56.000 21.677 C 56.000 21.481,61.362 21.418,61.556 21.611 C 61.617 21.672,62.098 21.744,62.625 21.771 C 64.487 21.867,66.012 22.051,66.099 22.191 C 66.147 22.269,66.482 22.333,66.843 22.333 C 67.204 22.333,67.500 22.408,67.500 22.500 C 67.500 22.592,67.800 22.667,68.167 22.667 C 68.533 22.667,68.833 22.742,68.833 22.833 C 68.833 22.925,68.965 23.001,69.125 23.003 C 69.466 23.005,70.609 23.386,70.775 23.552 C 70.837 23.615,71.064 23.667,71.278 23.667 C 71.492 23.667,71.667 23.742,71.667 23.833 C 71.667 23.925,71.892 24.000,72.167 24.000 C 72.442 24.000,72.667 24.075,72.667 24.167 C 72.667 24.258,72.817 24.333,73.000 24.333 C 73.183 24.333,73.333 24.408,73.333 24.500 C 73.333 24.592,73.449 24.667,73.590 24.667 C 73.731 24.667,74.162 24.828,74.548 25.025 C 74.934 25.222,75.267 25.378,75.288 25.373 C 75.453 25.329,76.000 25.569,76.000 25.686 C 76.000 25.767,76.112 25.833,76.250 25.833 C 76.387 25.833,76.500 25.908,76.500 26.000 C 76.500 26.092,76.612 26.167,76.750 26.167 C 76.887 26.167,77.000 26.246,77.000 26.343 C 77.000 26.440,77.069 26.477,77.153 26.425 C 77.238 26.373,77.420 26.443,77.558 26.582 C 77.696 26.720,77.893 26.833,77.995 26.833 C 78.097 26.833,78.342 26.983,78.538 27.167 C 78.735 27.350,78.995 27.500,79.115 27.500 C 79.235 27.500,79.335 27.556,79.337 27.625 C 79.338 27.694,79.713 27.972,80.170 28.243 C 80.626 28.514,81.000 28.795,81.000 28.868 C 81.000 28.941,81.076 29.000,81.168 29.000 C 81.261 29.000,81.572 29.225,81.860 29.500 C 82.147 29.775,82.484 30.000,82.608 30.000 C 82.732 30.000,82.833 30.075,82.833 30.167 C 82.833 30.261,83.306 30.333,83.917 30.333 C 84.512 30.333,85.000 30.277,85.000 30.207 C 85.000 30.138,85.244 29.975,85.542 29.845 C 85.840 29.715,86.205 29.472,86.353 29.304 C 86.501 29.137,86.745 29.000,86.895 29.000 C 87.044 29.000,87.167 28.939,87.167 28.864 C 87.167 28.789,87.635 28.508,88.208 28.239 C 88.781 27.970,89.287 27.712,89.333 27.667 C 89.558 27.442,90.500 26.998,90.503 27.116 C 90.504 27.190,90.560 27.175,90.628 27.083 C 90.808 26.838,91.457 26.500,91.748 26.500 C 91.886 26.500,92.000 26.425,92.000 26.333 C 92.000 26.242,92.188 26.167,92.417 26.167 C 92.646 26.167,92.833 26.092,92.833 26.000 C 92.833 25.908,93.058 25.833,93.333 25.833 C 93.608 25.833,93.833 25.767,93.833 25.685 C 93.833 25.603,94.077 25.499,94.375 25.454 C 94.992 25.359,95.252 25.292,96.417 24.930 C 96.875 24.787,97.441 24.669,97.675 24.668 C 97.909 24.667,98.171 24.599,98.258 24.516 C 98.440 24.343,99.518 24.186,101.375 24.061 C 102.085 24.014,102.667 23.905,102.667 23.821 C 102.667 23.736,102.861 23.667,103.099 23.667 C 103.391 23.667,103.559 23.559,103.618 23.333 C 103.666 23.150,103.772 23.000,103.853 23.000 C 104.182 23.000,104.016 20.919,103.667 20.667 C 103.483 20.535,103.333 20.365,103.333 20.290 C 103.333 20.099,103.159 19.904,101.125 17.822 C 100.140 16.813,99.333 15.903,99.333 15.800 C 99.333 15.696,99.288 15.656,99.233 15.711 C 99.178 15.766,98.919 15.591,98.656 15.322 C 98.393 15.053,98.138 14.833,98.089 14.833 C 97.978 14.833,97.664 14.561,96.500 13.457 C 95.996 12.979,95.546 12.585,95.500 12.580 C 95.323 12.563,93.904 11.600,93.667 11.336 C 93.399 11.037,90.414 9.000,90.244 9.000 C 90.189 9.000,90.030 8.888,89.893 8.750 C 89.755 8.613,89.494 8.500,89.312 8.500 C 89.129 8.500,89.019 8.438,89.066 8.362 C 89.112 8.286,88.780 8.043,88.328 7.820 C 87.875 7.598,87.504 7.360,87.503 7.292 C 87.501 7.223,87.350 7.167,87.167 7.167 C 86.983 7.167,86.833 7.092,86.833 7.000 C 86.833 6.908,86.683 6.833,86.500 6.833 C 86.317 6.833,86.166 6.777,86.166 6.708 C 86.166 6.640,85.754 6.396,85.250 6.167 C 84.746 5.938,84.334 5.694,84.334 5.625 C 84.334 5.556,84.220 5.500,84.083 5.500 C 83.945 5.500,83.443 5.313,82.968 5.083 C 82.493 4.854,81.968 4.667,81.802 4.667 C 81.636 4.667,81.500 4.592,81.500 4.500 C 81.500 4.408,81.354 4.333,81.177 4.333 C 80.999 4.333,80.807 4.258,80.750 4.167 C 80.693 4.075,80.464 4.000,80.240 4.000 C 80.016 4.000,79.833 3.925,79.833 3.833 C 79.833 3.742,79.683 3.667,79.500 3.667 C 79.317 3.667,79.167 3.592,79.167 3.500 C 79.167 3.408,78.984 3.333,78.760 3.333 C 78.536 3.333,78.307 3.258,78.250 3.167 C 78.193 3.075,77.922 3.000,77.647 3.000 C 77.372 3.000,77.182 2.944,77.224 2.875 C 77.267 2.806,77.111 2.739,76.879 2.725 C 76.647 2.711,76.410 2.636,76.353 2.558 C 76.296 2.480,76.063 2.393,75.833 2.363 C 75.604 2.334,74.909 2.162,74.289 1.980 C 73.668 1.799,73.087 1.696,72.997 1.752 C 72.907 1.807,72.833 1.774,72.833 1.677 C 72.833 1.579,72.503 1.500,72.093 1.500 C 71.686 1.500,71.307 1.425,71.250 1.333 C 71.193 1.242,70.814 1.167,70.407 1.167 C 70.000 1.167,69.667 1.092,69.667 1.000 C 69.667 0.908,69.254 0.833,68.750 0.833 C 68.246 0.833,67.833 0.758,67.833 0.667 C 67.833 0.571,67.317 0.500,66.617 0.500 C 65.947 0.500,65.329 0.435,65.242 0.355 C 65.021 0.152,58.108 0.039,55.083 0.188 M96.833 38.481 C 96.833 38.563,96.327 38.672,95.708 38.724 C 94.257 38.847,93.866 38.912,93.726 39.052 C 93.663 39.115,93.441 39.167,93.232 39.167 C 93.024 39.167,92.813 39.231,92.764 39.310 C 92.715 39.390,92.334 39.550,91.917 39.667 C 91.499 39.783,91.118 39.944,91.069 40.023 C 91.020 40.102,90.835 40.167,90.657 40.167 C 90.479 40.167,90.333 40.242,90.333 40.333 C 90.333 40.425,90.221 40.500,90.083 40.500 C 89.946 40.500,89.833 40.575,89.833 40.667 C 89.833 40.758,89.683 40.833,89.500 40.833 C 89.317 40.833,89.167 40.908,89.167 41.000 C 89.167 41.092,89.044 41.167,88.895 41.167 C 88.745 41.167,88.501 41.299,88.353 41.461 C 88.205 41.622,87.793 41.904,87.439 42.086 C 86.720 42.455,82.833 46.223,82.833 46.551 C 82.833 46.666,82.683 46.868,82.500 47.000 C 82.317 47.132,82.167 47.339,82.167 47.460 C 82.167 47.582,82.017 47.842,81.833 48.038 C 81.650 48.235,81.500 48.495,81.500 48.615 C 81.500 48.735,81.425 48.833,81.333 48.833 C 81.242 48.833,81.167 48.946,81.167 49.083 C 81.167 49.221,81.092 49.333,81.000 49.333 C 80.908 49.333,80.833 49.483,80.833 49.667 C 80.833 49.850,80.758 50.000,80.667 50.000 C 80.575 50.000,80.500 50.150,80.500 50.333 C 80.500 50.517,80.425 50.667,80.333 50.667 C 80.242 50.667,80.167 50.812,80.167 50.990 C 80.167 51.168,80.095 51.358,80.008 51.412 C 79.920 51.466,79.798 51.958,79.736 52.505 C 79.674 53.052,79.558 53.500,79.478 53.500 C 79.399 53.500,79.333 53.800,79.333 54.167 C 79.333 54.533,79.258 54.833,79.167 54.833 C 79.073 54.833,79.000 55.306,79.000 55.917 C 79.000 56.528,78.927 57.000,78.833 57.000 C 78.731 57.000,78.667 57.830,78.667 59.157 C 78.667 60.415,78.736 61.357,78.833 61.417 C 78.925 61.473,79.000 61.928,79.000 62.427 C 79.000 62.925,79.075 63.333,79.167 63.333 C 79.258 63.333,79.333 63.666,79.333 64.073 C 79.333 64.481,79.398 64.854,79.478 64.903 C 79.558 64.952,79.682 65.313,79.753 65.705 C 79.825 66.096,79.893 66.454,79.903 66.500 C 79.969 66.785,81.262 69.260,81.369 69.306 C 81.441 69.336,81.500 69.505,81.500 69.681 C 81.500 69.856,81.575 70.000,81.667 70.000 C 81.758 70.000,81.833 70.101,81.833 70.225 C 81.833 70.349,82.058 70.686,82.333 70.974 C 82.608 71.262,82.833 71.574,82.833 71.668 C 82.833 71.762,83.096 72.094,83.417 72.406 C 83.737 72.717,84.000 73.038,84.000 73.118 C 84.000 73.276,85.241 74.500,85.401 74.500 C 85.454 74.500,85.840 74.837,86.259 75.250 C 86.677 75.662,87.111 76.000,87.223 76.000 C 87.335 76.000,87.535 76.150,87.667 76.333 C 87.799 76.517,88.006 76.667,88.127 76.667 C 88.248 76.667,88.508 76.817,88.705 77.000 C 88.902 77.183,89.161 77.333,89.281 77.333 C 89.402 77.333,89.500 77.408,89.500 77.500 C 89.500 77.592,89.650 77.667,89.833 77.667 C 90.017 77.667,90.167 77.742,90.167 77.833 C 90.167 77.925,90.317 78.000,90.500 78.000 C 90.683 78.000,90.833 78.075,90.833 78.167 C 90.833 78.258,91.021 78.333,91.250 78.333 C 91.479 78.333,91.667 78.408,91.667 78.500 C 91.667 78.592,91.812 78.667,91.990 78.667 C 92.168 78.667,92.360 78.742,92.417 78.833 C 92.473 78.925,92.690 79.000,92.899 79.000 C 93.107 79.000,93.331 79.054,93.397 79.119 C 93.532 79.254,93.849 79.310,95.208 79.440 C 95.735 79.490,96.167 79.599,96.167 79.682 C 96.167 79.768,97.616 79.833,99.500 79.833 C 101.333 79.833,102.833 79.769,102.833 79.691 C 102.833 79.612,103.386 79.506,104.062 79.455 C 104.739 79.404,105.432 79.292,105.604 79.207 C 105.776 79.122,106.084 78.965,106.289 78.859 C 106.494 78.753,106.851 78.667,107.081 78.667 C 107.311 78.667,107.500 78.592,107.500 78.500 C 107.500 78.408,107.650 78.333,107.833 78.333 C 108.017 78.333,108.167 78.258,108.167 78.167 C 108.167 78.075,108.317 78.000,108.500 78.000 C 108.683 78.000,108.833 77.925,108.833 77.833 C 108.833 77.742,108.983 77.667,109.167 77.667 C 109.350 77.667,109.500 77.592,109.500 77.500 C 109.500 77.408,109.612 77.333,109.750 77.333 C 109.888 77.333,110.000 77.258,110.000 77.167 C 110.000 77.075,110.133 77.000,110.297 77.000 C 110.460 77.000,110.701 76.850,110.833 76.667 C 110.965 76.483,111.207 76.333,111.370 76.333 C 111.533 76.333,111.667 76.263,111.667 76.178 C 111.667 76.092,111.823 75.973,112.013 75.912 C 112.736 75.683,116.224 71.969,116.823 70.792 C 116.951 70.540,117.119 70.333,117.195 70.333 C 117.271 70.333,117.333 70.200,117.333 70.037 C 117.333 69.874,117.483 69.632,117.667 69.500 C 117.850 69.368,118.000 69.126,118.000 68.963 C 118.000 68.800,118.075 68.667,118.167 68.667 C 118.258 68.667,118.333 68.554,118.333 68.417 C 118.333 68.279,118.408 68.167,118.500 68.167 C 118.592 68.167,118.667 67.942,118.667 67.667 C 118.667 67.392,118.742 67.167,118.833 67.167 C 118.925 67.167,119.000 67.021,119.000 66.843 C 119.000 66.665,119.075 66.473,119.167 66.417 C 119.258 66.360,119.333 66.135,119.333 65.917 C 119.333 65.698,119.408 65.473,119.500 65.417 C 119.592 65.360,119.667 65.098,119.667 64.833 C 119.667 64.569,119.727 64.316,119.800 64.271 C 119.874 64.225,119.953 63.866,119.976 63.473 C 119.999 63.080,120.084 62.718,120.165 62.668 C 120.356 62.550,120.356 55.812,120.165 55.581 C 120.085 55.485,120.001 55.052,119.978 54.619 C 119.956 54.187,119.877 53.833,119.802 53.833 C 119.728 53.833,119.667 53.613,119.667 53.343 C 119.667 53.074,119.592 52.807,119.500 52.750 C 119.408 52.693,119.333 52.468,119.333 52.250 C 119.333 52.032,119.258 51.807,119.167 51.750 C 119.075 51.693,119.000 51.508,119.000 51.337 C 119.000 51.167,118.944 51.003,118.875 50.972 C 118.695 50.892,118.000 49.512,118.000 49.234 C 118.000 49.105,117.925 49.000,117.833 49.000 C 117.742 49.000,117.667 48.887,117.667 48.750 C 117.667 48.612,117.592 48.500,117.500 48.500 C 117.408 48.500,117.333 48.350,117.333 48.167 C 117.333 47.983,117.271 47.833,117.195 47.833 C 117.119 47.833,116.951 47.627,116.822 47.375 C 116.265 46.288,112.167 41.955,112.167 42.454 C 112.167 42.508,112.027 42.390,111.855 42.192 C 111.684 41.995,111.422 41.833,111.272 41.833 C 111.122 41.833,111.000 41.758,111.000 41.667 C 111.000 41.575,110.867 41.500,110.703 41.500 C 110.540 41.500,110.299 41.350,110.167 41.167 C 110.035 40.983,109.830 40.833,109.713 40.833 C 109.596 40.833,109.500 40.758,109.500 40.667 C 109.500 40.575,109.350 40.500,109.167 40.500 C 108.983 40.500,108.833 40.425,108.833 40.333 C 108.833 40.242,108.688 40.167,108.510 40.167 C 108.332 40.167,108.140 40.092,108.083 40.000 C 108.027 39.908,107.797 39.833,107.573 39.833 C 107.350 39.833,107.167 39.758,107.167 39.667 C 107.167 39.575,107.021 39.500,106.843 39.500 C 106.665 39.500,106.479 39.434,106.429 39.353 C 106.378 39.271,106.093 39.160,105.794 39.104 C 105.495 39.049,105.063 38.958,104.833 38.902 C 104.604 38.847,103.985 38.765,103.458 38.719 C 102.931 38.674,102.500 38.569,102.500 38.485 C 102.500 38.400,101.260 38.333,99.667 38.333 C 98.108 38.333,96.833 38.400,96.833 38.481 " stroke="none" fill="#049cfc" fill-rule="evenodd"></path><path id="path2" d="M368.061 64.083 C 368.061 65.000,368.089 65.354,368.123 64.869 C 368.157 64.385,368.156 63.635,368.122 63.203 C 368.088 62.770,368.060 63.167,368.061 64.083 " stroke="none" fill="#5c5c54" fill-rule="evenodd"></path><path id="path3" d="" stroke="none" fill="#3478d0" fill-rule="evenodd"></path><path id="path4" d="" stroke="none" fill="#0478100" fill-rule="evenodd"></path></g></svg>